<?xml version="1.0" encoding="UTF-8"?>
<svg id="Layer_1" xmlns="http://www.w3.org/2000/svg" version="1.1" viewBox="0 0 321.35 109.24">
  <!-- Generator: Adobe Illustrator 30.0.0, SVG Export Plug-In . SVG Version: 2.1.1 Build 123)  -->
  <defs>
    <style>
      .st0 {
        fill: #ffffff;
      }

      .st1 {
        fill: #dfcd8f;
      }
    </style>
  </defs>
  <g>
    <path class="st0" d="M96.6,50.05h2.93l11.76-27.07h3.3l11.81,27.07h2.82v.99h-12.56v-.99h3.64s-3.95-9.94-3.95-9.94h-11.11l-4.21,9.94h4.5v.99h-8.94v-.99ZM115.92,39.12l-4.86-12.4-5.22,12.4h10.08Z"/>
    <path class="st0" d="M140.23,51.04h-9.9v-.99h3.51v-25.59h-3.51v-.99h10.7l16.33,22.08v-21.08h-5.05v-.99h10v.99h-3.46v26.59h-3.62l-19.9-26.91v25.91h4.9v.99Z"/>
    <path class="st0" d="M176.04,23.46c12.66,0,18.99,4.6,18.99,13.79s-6.37,13.79-19.1,13.79h-11.23v-.99h3.41v-25.59h-3.41v-.99h11.34ZM173.76,50.05h2.18c4.68,0,8.03-1.01,10.03-3.03,2-2.02,3.01-5.27,3.01-9.75s-1.01-7.74-3.03-9.77c-2.02-2.03-5.34-3.04-9.95-3.04h-2.23v25.59Z"/>
    <path class="st0" d="M194.05,50.05h2.93l11.76-27.07h3.3l11.81,27.07h2.82v.99h-12.56v-.99h3.64s-3.95-9.94-3.95-9.94h-11.11l-4.21,9.94h4.5v.99h-8.94v-.99ZM213.37,39.12l-4.86-12.4-5.22,12.4h10.08Z"/>
    <path class="st0" d="M244.09,23.46v.99h-4.57v25.59h7.5c1.28,0,2.16-.07,2.66-.22.5-.15.92-.52,1.28-1.12.35-.6.79-1.67,1.3-3.21.51-1.54,1-3.34,1.46-5.39h1.49v10.93h-24.64v-.99h3.25v-25.59h-3.25v-.99h13.51Z"/>
    <path class="st0" d="M270.86,23.46v.99h-3.78v18.25c0,2.7.54,4.66,1.62,5.89,1.08,1.23,3.01,1.85,5.77,1.85s4.87-.54,5.99-1.63c1.12-1.08,1.78-2.15,2-3.19.21-1.05.32-2.53.32-4.47v-16.71h-4.15v-.99h8.73v.99h-3.09v19.13c0,5.32-3.73,7.98-11.18,7.98-4.54,0-7.62-.79-9.23-2.36-1.61-1.58-2.42-4.13-2.42-7.68v-17.07h-3.3v-.99h12.72Z"/>
    <path class="st0" d="M300.7,50.65c2.68,0,4.87-.58,6.58-1.75,1.71-1.16,2.57-2.62,2.57-4.37,0-1.43-.62-2.53-1.86-3.29-1.24-.77-3.7-1.75-7.37-2.94-3.67-1.19-6.4-2.32-8.2-3.39-1.79-1.07-2.68-2.61-2.68-4.62,0-2.14,1.2-3.91,3.59-5.3,2.4-1.39,5.65-2.08,9.77-2.08,3.12,0,6.3.54,9.52,1.63v7.59h-1.17c-1.28-3.02-2.3-5.17-3.08-6.46-.78-1.29-2.8-1.93-6.07-1.93-2.55,0-4.65.45-6.28,1.35-1.63.9-2.45,2.04-2.45,3.41,0,1.19.5,2.18,1.52,2.96,1.01.78,3.69,1.86,8.03,3.23,4.34,1.38,7.37,2.6,9.07,3.67s2.55,2.63,2.55,4.66c0,2.38-1.35,4.4-4.03,6.05-2.69,1.65-6.14,2.48-10.34,2.48-2.32,0-4.44-.24-6.36-.71-1.92-.47-3.35-1.07-4.27-1.8v-8.5h1.17c1.32,3.51,2.44,6.07,3.37,7.68.93,1.61,3.07,2.41,6.42,2.41Z"/>
    <path class="st0" d="M122.84,66.86h-1.76c-1.1-2.89-1.99-5-2.66-6.34-.67-1.34-2.13-2.01-4.36-2.01-3.69,0-6.52,1.15-8.49,3.43-1.97,2.29-2.95,5.63-2.95,10.02s.89,7.84,2.69,10.1c1.79,2.26,4.44,3.39,7.96,3.39,2.69,0,4.44-.78,5.24-2.34.8-1.56,1.78-3.97,2.95-7.23h1.76v8.35c-1.31.66-2.8,1.18-4.47,1.55-1.67.37-3.32.56-4.95.56-5.04,0-9.16-1.29-12.37-3.87-3.21-2.58-4.82-5.95-4.82-10.1s1.65-7.8,4.95-10.56c3.3-2.75,7.48-4.13,12.56-4.13,1.7,0,3.25.14,4.63.42,1.38.28,2.75.72,4.1,1.33v7.43Z"/>
    <path class="st0" d="M125.44,84.83h2.93l11.76-27.07h3.3l11.81,27.07h2.82v.99h-12.56v-.99h3.64s-3.95-9.94-3.95-9.94h-11.11l-4.21,9.94h4.5v.99h-8.94v-.99ZM144.76,73.9l-4.86-12.4-5.22,12.4h10.08Z"/>
    <path class="st0" d="M172.74,58.24c2.31,0,4.16.06,5.56.18,1.4.12,3.21.57,5.43,1.35,2.22.78,3.33,2.56,3.33,5.33s-1.27,4.52-3.81,5.55c-2.54,1.03-6.66,1.55-12.37,1.55h-2.55v12.64h4.36v.99h-13.3v-.99h3.25v-25.6h-3.25v-.99h13.36ZM168.33,71.2h1.81c4.01,0,6.83-.38,8.46-1.15,1.63-.77,2.45-2.41,2.45-4.93,0-2.15-.7-3.66-2.1-4.55-1.4-.89-3.68-1.33-6.84-1.33h-3.78v11.96Z"/>
    <path class="st0" d="M201.53,58.24v.99h-3.25v25.6h3.25v.99h-12.18v-.99h3.25v-25.6h-3.25v-.99h12.18Z"/>
    <path class="st0" d="M218.98,59.07v25.75h3.78v.99h-13.19v-.99h3.78v-25.75h-3.19c-1.6,0-2.64.61-3.14,1.83-.5,1.22-1.17,3.23-2.02,6.04h-1.38v-8.7h25.17v8.7h-1.44c-.92-3.1-1.6-5.19-2.05-6.26-.45-1.07-1.48-1.61-3.12-1.61h-3.19Z"/>
    <path class="st0" d="M227.29,84.83h2.93l11.76-27.07h3.3l11.81,27.07h2.82v.99h-12.56v-.99h3.64s-3.95-9.94-3.95-9.94h-11.11l-4.21,9.94h4.5v.99h-8.94v-.99ZM246.61,73.9l-4.86-12.4-5.22,12.4h10.08Z"/>
    <path class="st0" d="M276.55,58.24v.99h-4.57v25.6h7.5c1.28,0,2.16-.07,2.66-.22.5-.15.92-.52,1.28-1.12.35-.6.79-1.67,1.3-3.21.51-1.54,1-3.34,1.46-5.39h1.49v10.93h-24.64v-.99h3.25v-25.6h-3.25v-.99h13.51Z"/>
  </g>
  <g>
    <path class="st1" d="M29.9,30.6c.62-1.49,1.48-2.81,2.58-3.95,1.1-1.14,2.39-2.04,3.86-2.71,1.47-.66,3.04-1.04,4.7-1.12h.56c-1.41,0-2.61.49-3.61,1.46-1,.98-1.49,2.17-1.49,3.58v.71h-.04v53.18h-7.49v-46.36c0-1.7.31-3.3.93-4.79Z"/>
    <path class="st1" d="M64.56,24.63c-.62-1.49-1.48-2.81-2.58-3.95-1.1-1.14-2.39-2.04-3.86-2.71-1.47-.66-3.04-1.04-4.7-1.12h-.56c1.41,0,2.61.49,3.61,1.46,1,.98,1.49,2.17,1.49,3.58v.71h.04v66.99h7.49V29.42c0-1.7-.31-3.3-.93-4.79Z"/>
    <path class="st1" d="M18.81,24.63c.62-1.49,1.48-2.81,2.58-3.95,1.1-1.14,2.39-2.04,3.86-2.71,1.47-.66,3.04-1.04,4.7-1.12h.56c-1.41,0-2.61.49-3.61,1.46-1,.98-1.49,2.17-1.49,3.58v.71h-.04v66.99h-7.49V29.42c0-1.7.31-3.3.93-4.79Z"/>
    <path class="st1" d="M79.81,20.79c-.62-1.49-1.48-2.81-2.58-3.95-1.1-1.14-2.39-2.04-3.86-2.71-1.47-.66-3.04-1.04-4.7-1.12h-.56c1.41,0,2.61.49,3.61,1.46,1,.98,1.49,2.17,1.49,3.58v.71h.04v77.48h7.49V25.58c0-1.7-.31-3.3-.93-4.79Z"/>
    <path class="st1" d="M3.59,20.79c.62-1.49,1.48-2.81,2.58-3.95,1.1-1.14,2.39-2.04,3.86-2.71,1.47-.66,3.04-1.04,4.7-1.12h.56c-1.41,0-2.61.49-3.61,1.46-1,.98-1.49,2.17-1.49,3.58v.71h-.04v77.48H2.65V25.58c0-1.7.31-3.3.93-4.79Z"/>
    <path class="st1" d="M53.27,30.6c-.62-1.49-1.48-2.81-2.58-3.95-1.1-1.14-2.39-2.04-3.86-2.71-1.47-.66-3.04-1.04-4.7-1.12h-.56c1.41,0,2.61.49,3.61,1.46,1,.98,1.49,2.17,1.49,3.58v.71h.04v53.18h7.49v-46.36c0-1.7-.31-3.3-.93-4.79Z"/>
  </g>
</svg>