<?xml version="1.0" encoding="UTF-8"?>
<svg id="Layer_1" xmlns="http://www.w3.org/2000/svg" version="1.1" viewBox="0 0 2083.33 1137.37">
  <!-- Generator: Adobe Illustrator 29.5.0, SVG Export Plug-In . SVG Version: 2.1.0 Build 137)  -->
  <defs>
    <style>
      .st0 {
        fill: #f7f7f7;
      }
    </style>
  </defs>
  <g>
    <rect class="st0" x="-6.77" y="21.52" width="75.53" height="2.1" transform="translate(-6.88 28.53) rotate(-45)"/>
    <rect class="st0" x="512.43" y="21.52" width="75.53" height="2.1" transform="translate(145.19 395.66) rotate(-45)"/>
    <rect class="st0" x="964.5" y="-15.19" width="2.1" height="75.53" transform="translate(266.84 689.36) rotate(-45)"/>
    <polygon class="st0" points="107.39 48.53 108.87 50.02 159.31 100.45 107.39 152.37 108.87 153.86 160.79 101.94 162.28 100.45 160.79 98.96 110.36 48.53 160.79 -1.9 211.23 48.53 212.71 50.02 214.2 48.53 266.12 -3.39 264.64 -4.88 212.71 47.04 162.28 -3.39 160.79 -4.88 159.31 -3.39 108.87 47.04 107.39 48.53"/>
    <path class="st0" d="M472.32,50.02l50.43,50.43,1.49,1.49,50.43,50.43-50.43,50.43-1.49,1.49-50.43,50.43-1.49,1.49,1.49,1.49,50.43,50.43,1.49,1.49,1.49-1.49,50.43-50.43,50.43,50.43,1.49,1.49,51.92,51.92,1.49-1.49-51.92-51.92-1.49-1.49-50.43-50.43,50.43-50.43,1.49-1.49,50.43-50.43,50.43,50.43,1.49,1.49,1.49-1.49,51.92-51.92-1.49-1.49-51.92,51.92-50.43-50.43,50.43-50.43,1.49-1.49,50.43-50.43,1.49-1.49L835.76-1.9l51.92,51.92,1.49-1.49-51.92-51.92-1.49-1.49-1.49,1.49-50.43,50.43-51.92-51.92-1.49,1.49,51.92,51.92-50.43,50.43-51.92-51.92-1.49,1.49,51.92,51.92-50.43,50.43-1.49,1.49-50.43,50.43-50.43-50.43,50.43-50.43,1.49-1.49-1.49-1.49-50.43-50.43,51.92-51.92-1.49-1.49-51.92,51.92-1.49,1.49-50.43,50.43-50.43-50.43,51.92-51.92-1.49-1.49-51.92,51.92-51.92-51.92-1.49,1.49,51.92,51.92,1.49,1.49ZM626.59,204.29l-50.43,50.43-1.49,1.49-50.43,50.43-50.43-50.43,50.43-50.43,1.49-1.49,50.43-50.43,50.43,50.43ZM576.16,50.02l50.43,50.43-50.43,50.43-50.43-50.43,50.43-50.43Z"/>
    <polygon class="st0" points="626.59 48.53 628.08 50.02 678.51 100.45 626.59 152.37 628.08 153.86 680 101.94 681.49 100.45 680 98.96 629.57 48.53 680 -1.9 731.92 50.02 733.41 48.53 681.49 -3.39 680 -4.88 678.51 -3.39 628.08 47.04 626.59 48.53"/>
    <path class="st0" d="M1043.44,50.02l1.49-1.49-1.49-1.49-51.92-51.92-1.49,1.49,51.92,51.92-50.43,50.43-50.43-50.43-1.49-1.49-51.92-51.92-1.49,1.49,51.92,51.92-50.43,50.43-50.43-50.43-1.49-1.49-1.49,1.49-50.43,50.43-1.49,1.49-51.92,51.92,1.49,1.49,51.92-51.92,50.43,50.43-50.43,50.43-1.49,1.49-50.43,50.43-50.43-50.43-1.49-1.49-1.49,1.49-50.43,50.43-1.49,1.49,1.49,1.49,50.43,50.43,1.49,1.49,50.43,50.43-50.43,50.43-50.43-50.43-1.49-1.49-50.43-50.43-1.49-1.49-1.49,1.49-50.43,50.43-50.43-50.43-1.49-1.49-50.43-50.43,50.43-50.43,1.49-1.49,50.43-50.43,1.49-1.49-1.49-1.49-50.43-50.43-1.49-1.49-50.43-50.43-1.49-1.49-51.92-51.92-1.49,1.49,51.92,51.92-50.43,50.43-50.43-50.43-1.49-1.49-1.49,1.49-50.43,50.43-1.49,1.49,1.49,1.49,50.43,50.43-50.43,50.43-1.49,1.49,1.49,1.49,50.43,50.43-50.43,50.43-1.49,1.49-50.43,50.43-1.49,1.49-51.92,51.92,1.49,1.49,51.92-51.92,1.49-1.49,50.43-50.43,1.49-1.49,50.43-50.43,1.49-1.49-1.49-1.49-50.43-50.43,50.43-50.43,50.43,50.43,1.49,1.49,50.43,50.43,1.49,1.49,50.43,50.43-50.43,50.43-1.49,1.49,1.49,1.49,50.43,50.43-50.43,50.43-51.92-51.92-1.49,1.49,51.92,51.92,1.49,1.49,50.43,50.43-50.43,50.43-50.43-50.43-1.49-1.49-51.92-51.92-1.49,1.49,51.92,51.92-51.92,51.92,1.49,1.49,51.92-51.92,50.43,50.43,1.49,1.49,1.49-1.49,50.43-50.43,1.49-1.49,50.43-50.43,50.43,50.43-51.92,51.92,1.49,1.49,51.92-51.92,50.43,50.43,1.49,1.49,1.49-1.49,50.43-50.43,1.49-1.49,50.43-50.43,1.49-1.49,50.43-50.43,50.43,50.43,1.49,1.49,1.49-1.49,51.92-51.92-1.49-1.49-51.92,51.92-50.43-50.43-1.49-1.49-1.49,1.49-50.43,50.43-50.43-50.43,50.43-50.43,1.49-1.49-1.49-1.49-50.43-50.43-1.49-1.49-50.43-50.43,50.43-50.43,50.43,50.43,1.49,1.49,51.92,51.92,1.49-1.49-51.92-51.92,50.43-50.43,51.92,51.92,1.49-1.49-51.92-51.92,50.43-50.43,1.49-1.49-1.49-1.49-50.43-50.43,50.43-50.43,50.43,50.43,1.49,1.49,50.43,50.43-50.43,50.43-1.49,1.49,1.49,1.49,50.43,50.43,1.49,1.49,50.43,50.43-51.92,51.92,1.49,1.49,51.92-51.92,51.92,51.92,1.49-1.49-51.92-51.92,50.43-50.43,1.49-1.49-1.49-1.49-50.43-50.43-1.49-1.49-1.49,1.49-50.43,50.43-50.43-50.43,50.43-50.43,1.49-1.49,50.43-50.43,51.92,51.92,1.49-1.49-51.92-51.92,50.43-50.43ZM522.75,152.37l-50.43,50.43-50.43-50.43,50.43-50.43,50.43,50.43ZM318.04,152.37l-1.49-1.49-50.43-50.43,50.43-50.43,50.43,50.43,1.49,1.49,1.49-1.49,50.43-50.43,50.43,50.43-50.43,50.43-1.49,1.49-50.43,50.43-50.43-50.43ZM369.96,204.29l50.43-50.43,50.43,50.43-50.43,50.43-50.43-50.43ZM678.51,411.97l-50.43,50.43-50.43-50.43,50.43-50.43,50.43,50.43ZM576.16,309.62l50.43,50.43-50.43,50.43-50.43-50.43,50.43-50.43ZM574.67,411.97l-50.43,50.43-50.43-50.43,50.43-50.43,50.43,50.43ZM421.88,360.05l50.43-50.43,50.43,50.43-50.43,50.43-50.43-50.43ZM472.32,514.32l-50.43-50.43,50.43-50.43,50.43,50.43-50.43,50.43ZM525.72,463.89l50.43-50.43,50.43,50.43-50.43,50.43-50.43-50.43ZM730.43,463.89l-50.43,50.43-1.49,1.49-50.43,50.43-50.43-50.43,50.43-50.43,1.49-1.49,50.43-50.43,50.43,50.43ZM991.52,205.78l50.43,50.43-50.43,50.43-50.43-50.43,50.43-50.43ZM939.6,150.88l-50.43-50.43,50.43-50.43,50.43,50.43-50.43,50.43Z"/>
    <polygon class="st0" points="420.4 98.96 368.48 150.88 316.56 98.96 315.07 100.45 366.99 152.37 368.48 153.86 369.96 152.37 421.88 100.45 420.4 98.96"/>
    <polygon class="st0" points="991.52 150.88 990.03 152.37 938.11 204.29 939.6 205.78 991.52 153.86 1043.44 205.78 1044.93 204.29 993.01 152.37 991.52 150.88"/>
    <rect class="st0" x="512.43" y="229.2" width="75.53" height="2.1" transform="translate(-1.67 456.48) rotate(-45)"/>
    <path class="st0" d="M3.55,360.05l1.49,1.49,50.43,50.43,1.49,1.49,1.49-1.49,50.43-50.43,1.49-1.49,50.43-50.43,1.49-1.49,50.43-50.43,1.49-1.49-1.49-1.49-50.43-50.43,51.92-51.92-1.49-1.49-51.92,51.92-1.49,1.49,1.49,1.49,50.43,50.43-50.43,50.43-50.43-50.43-1.49-1.49-1.49,1.49-50.43,50.43L5.03,254.72l-1.49,1.49,51.92,51.92-50.43,50.43-1.49,1.49ZM108.87,257.7l50.43,50.43-50.43,50.43-50.43-50.43,50.43-50.43ZM56.95,309.62l50.43,50.43-50.43,50.43-50.43-50.43,50.43-50.43Z"/>
    <polygon class="st0" points="316.56 361.54 318.04 360.05 369.96 308.13 368.48 306.64 316.56 358.56 315.07 360.05 263.15 411.97 264.64 413.46 316.56 361.54"/>
    <path class="st0" d="M1044.93,411.97l-1.49-1.49-50.43-50.43-1.49-1.49-1.49,1.49-50.43,50.43-50.43-50.43,50.43-50.43,1.49-1.49-1.49-1.49-50.43-50.43-1.49-1.49-50.43-50.43,50.43-50.43,1.49-1.49-1.49-1.49-51.92-51.92-1.49,1.49,51.92,51.92-50.43,50.43-1.49,1.49,1.49,1.49,50.43,50.43-50.43,50.43-51.92-51.92-1.49,1.49,51.92,51.92-50.43,50.43-50.43-50.43-1.49-1.49-51.92-51.92-1.49,1.49,51.92,51.92,1.49,1.49,50.43,50.43-51.92,51.92,1.49,1.49,51.92-51.92,50.43,50.43,1.49,1.49,1.49-1.49,50.43-50.43,50.43,50.43-50.43,50.43-1.49,1.49-50.43,50.43-50.43-50.43-1.49-1.49-1.49,1.49-50.43,50.43-1.49,1.49-51.92,51.92,1.49,1.49,51.92-51.92,1.49-1.49,50.43-50.43,50.43,50.43-51.92,51.92,1.49,1.49,51.92-51.92,51.92,51.92,1.49-1.49-51.92-51.92,50.43-50.43,51.92,51.92,1.49-1.49-51.92-51.92,50.43-50.43,50.43,50.43,1.49,1.49,50.43,50.43-51.92,51.92,1.49,1.49,51.92-51.92,1.49-1.49-1.49-1.49-50.43-50.43,50.43-50.43,1.49-1.49ZM887.68,257.7l50.43,50.43-50.43,50.43-50.43-50.43,50.43-50.43ZM835.76,410.48l-50.43-50.43,50.43-50.43,50.43,50.43-50.43,50.43ZM991.52,462.4l-50.43-50.43,50.43-50.43,50.43,50.43-50.43,50.43Z"/>
    <polygon class="st0" points="108.87 465.38 160.79 517.3 162.28 515.81 110.36 463.89 108.87 462.4 107.39 463.89 56.95 514.32 55.47 515.81 56.95 517.3 108.87 569.22 110.36 567.73 58.44 515.81 108.87 465.38"/>
    <rect class="st0" x="616.26" y="488.8" width="75.53" height="2.1" transform="translate(-154.82 605.94) rotate(-45)"/>
    <path class="st0" d="M318.04,515.81l-1.49-1.49-50.43-50.43,50.43-50.43,50.43,50.43,1.49,1.49,51.92,51.92,1.49-1.49-51.92-51.92-1.49-1.49-50.43-50.43,50.43-50.43,51.92,51.92,1.49-1.49-51.92-51.92,50.43-50.43,1.49-1.49-1.49-1.49-50.43-50.43-1.49-1.49-51.92-51.92-1.49,1.49,51.92,51.92-50.43,50.43-1.49,1.49-50.43,50.43-1.49,1.49-50.43,50.43-1.49,1.49-50.43,50.43-50.43-50.43,50.43-50.43,1.49-1.49,50.43-50.43,1.49-1.49,50.43-50.43,1.49-1.49-1.49-1.49-50.43-50.43,50.43-50.43,1.49-1.49-1.49-1.49-50.43-50.43,50.43-50.43,1.49-1.49L316.56-1.9l51.92,51.92,1.49-1.49L318.04-3.39l-1.49-1.49-1.49,1.49-50.43,50.43-1.49,1.49-50.43,50.43-51.92-51.92-1.49,1.49,51.92,51.92-50.43,50.43-1.49,1.49-50.43,50.43-50.43-50.43,50.43-50.43,1.49-1.49-1.49-1.49-50.43-50.43L110.36-3.39l-1.49-1.49-51.92,51.92-1.49,1.49L5.03,98.96l-1.49,1.49,1.49,1.49,50.43,50.43L5.03,202.8l-1.49,1.49,1.49,1.49,50.43,50.43,1.49,1.49,1.49-1.49,50.43-50.43,51.92,51.92,1.49-1.49-51.92-51.92,50.43-50.43,1.49-1.49,50.43-50.43,50.43,50.43-50.43,50.43-1.49,1.49,1.49,1.49,50.43,50.43-50.43,50.43-1.49,1.49-50.43,50.43-1.49,1.49-50.43,50.43-1.49,1.49-50.43,50.43-51.92-51.92-1.49,1.49,51.92,51.92-50.43,50.43-1.49,1.49,1.49,1.49,51.92,51.92,1.49-1.49-51.92-51.92,50.43-50.43,1.49-1.49,50.43-50.43,50.43,50.43,1.49,1.49,50.43,50.43-50.43,50.43-51.92-51.92-1.49,1.49,51.92,51.92,1.49,1.49,1.49-1.49,50.43-50.43,50.43,50.43,1.49,1.49,1.49-1.49,50.43-50.43,1.49-1.49ZM6.52,100.45l50.43-50.43,50.43,50.43-50.43,50.43L6.52,100.45ZM56.95,254.72L6.52,204.29l50.43-50.43,50.43,50.43-50.43,50.43ZM264.64,361.54l1.49-1.49,50.43-50.43,1.49-1.49,50.43-50.43,50.43,50.43-50.43,50.43-1.49,1.49-50.43,50.43-1.49,1.49-50.43,50.43-50.43-50.43,50.43-50.43ZM162.28,463.89l50.43-50.43,50.43,50.43-50.43,50.43-50.43-50.43ZM264.64,566.24l-50.43-50.43,50.43-50.43,50.43,50.43-50.43,50.43Z"/>
    <rect class="st0" x="460.5" y="540.72" width="75.53" height="2.1" transform="translate(-237.15 511.01) rotate(-45)"/>
    <rect class="st0" x="720.1" y="540.72" width="75.53" height="2.1" transform="translate(-161.12 694.58) rotate(-45)"/>
    <polygon class="st0" points="993.01 515.81 991.52 514.32 939.6 462.4 938.11 463.89 990.03 515.81 939.6 566.24 887.68 514.32 886.19 515.81 938.11 567.73 939.6 569.22 941.09 567.73 991.52 517.3 993.01 515.81"/>
  </g>
  <g>
    <rect class="st0" x="1031.63" y="21.52" width="75.53" height="2.1" transform="translate(297.26 762.79) rotate(-45)"/>
    <rect class="st0" x="1550.83" y="21.52" width="75.53" height="2.1" transform="translate(449.33 1129.92) rotate(-45)"/>
    <rect class="st0" x="2002.91" y="-15.19" width="2.1" height="75.53" transform="translate(570.98 1423.62) rotate(-45)"/>
    <polygon class="st0" points="1145.79 48.53 1147.28 50.02 1197.71 100.45 1145.79 152.37 1147.28 153.86 1199.2 101.94 1200.69 100.45 1199.2 98.96 1148.77 48.53 1199.2 -1.9 1249.63 48.53 1251.12 50.02 1252.61 48.53 1304.53 -3.39 1303.04 -4.88 1251.12 47.04 1200.69 -3.39 1199.2 -4.88 1197.71 -3.39 1147.28 47.04 1145.79 48.53"/>
    <path class="st0" d="M1510.72,50.02l50.43,50.43,1.49,1.49,50.43,50.43-50.43,50.43-1.49,1.49-50.43,50.43-1.49,1.49,1.49,1.49,50.43,50.43,1.49,1.49,1.49-1.49,50.43-50.43,50.43,50.43,1.49,1.49,51.92,51.92,1.49-1.49-51.92-51.92-1.49-1.49-50.43-50.43,50.43-50.43,1.49-1.49,50.43-50.43,50.43,50.43,1.49,1.49,1.49-1.49,51.92-51.92-1.49-1.49-51.92,51.92-50.43-50.43,50.43-50.43,1.49-1.49,50.43-50.43,1.49-1.49,50.43-50.43,51.92,51.92,1.49-1.49-51.92-51.92-1.49-1.49-1.49,1.49-50.43,50.43-51.92-51.92-1.49,1.49,51.92,51.92-50.43,50.43-51.92-51.92-1.49,1.49,51.92,51.92-50.43,50.43-1.49,1.49-50.43,50.43-50.43-50.43,50.43-50.43,1.49-1.49-1.49-1.49-50.43-50.43,51.92-51.92-1.49-1.49-51.92,51.92-1.49,1.49-50.43,50.43-50.43-50.43,51.92-51.92-1.49-1.49-51.92,51.92-51.92-51.92-1.49,1.49,51.92,51.92,1.49,1.49ZM1664.99,204.29l-50.43,50.43-1.49,1.49-50.43,50.43-50.43-50.43,50.43-50.43,1.49-1.49,50.43-50.43,50.43,50.43ZM1614.56,50.02l50.43,50.43-50.43,50.43-50.43-50.43,50.43-50.43Z"/>
    <polygon class="st0" points="1664.99 48.53 1666.48 50.02 1716.92 100.45 1664.99 152.37 1666.48 153.86 1718.4 101.94 1719.89 100.45 1718.4 98.96 1667.97 48.53 1718.4 -1.9 1770.32 50.02 1771.81 48.53 1719.89 -3.39 1718.4 -4.88 1716.92 -3.39 1666.48 47.04 1664.99 48.53"/>
    <path class="st0" d="M2081.85,50.02l1.49-1.49-1.49-1.49-51.92-51.92-1.49,1.49,51.92,51.92-50.43,50.43-50.43-50.43-1.49-1.49-51.92-51.92-1.49,1.49,51.92,51.92-50.43,50.43-50.43-50.43-1.49-1.49-1.49,1.49-50.43,50.43-1.49,1.49-51.92,51.92,1.49,1.49,51.92-51.92,50.43,50.43-50.43,50.43-1.49,1.49-50.43,50.43-50.43-50.43-1.49-1.49-1.49,1.49-50.43,50.43-1.49,1.49,1.49,1.49,50.43,50.43,1.49,1.49,50.43,50.43-50.43,50.43-50.43-50.43-1.49-1.49-50.43-50.43-1.49-1.49-1.49,1.49-50.43,50.43-50.43-50.43-1.49-1.49-50.43-50.43,50.43-50.43,1.49-1.49,50.43-50.43,1.49-1.49-1.49-1.49-50.43-50.43-1.49-1.49-50.43-50.43-1.49-1.49-51.92-51.92-1.49,1.49,51.92,51.92-50.43,50.43-50.43-50.43-1.49-1.49-1.49,1.49-50.43,50.43-1.49,1.49,1.49,1.49,50.43,50.43-50.43,50.43-1.49,1.49,1.49,1.49,50.43,50.43-50.43,50.43-1.49,1.49-50.43,50.43-1.49,1.49-51.92,51.92,1.49,1.49,51.92-51.92,1.49-1.49,50.43-50.43,1.49-1.49,50.43-50.43,1.49-1.49-1.49-1.49-50.43-50.43,50.43-50.43,50.43,50.43,1.49,1.49,50.43,50.43,1.49,1.49,50.43,50.43-50.43,50.43-1.49,1.49,1.49,1.49,50.43,50.43-50.43,50.43-51.92-51.92-1.49,1.49,51.92,51.92,1.49,1.49,50.43,50.43-50.43,50.43-50.43-50.43-1.49-1.49-51.92-51.92-1.49,1.49,51.92,51.92-51.92,51.92,1.49,1.49,51.92-51.92,50.43,50.43,1.49,1.49,1.49-1.49,50.43-50.43,1.49-1.49,50.43-50.43,50.43,50.43-51.92,51.92,1.49,1.49,51.92-51.92,50.43,50.43,1.49,1.49,1.49-1.49,50.43-50.43,1.49-1.49,50.43-50.43,1.49-1.49,50.43-50.43,50.43,50.43,1.49,1.49,1.49-1.49,51.92-51.92-1.49-1.49-51.92,51.92-50.43-50.43-1.49-1.49-1.49,1.49-50.43,50.43-50.43-50.43,50.43-50.43,1.49-1.49-1.49-1.49-50.43-50.43-1.49-1.49-50.43-50.43,50.43-50.43,50.43,50.43,1.49,1.49,51.92,51.92,1.49-1.49-51.92-51.92,50.43-50.43,51.92,51.92,1.49-1.49-51.92-51.92,50.43-50.43,1.49-1.49-1.49-1.49-50.43-50.43,50.43-50.43,50.43,50.43,1.49,1.49,50.43,50.43-50.43,50.43-1.49,1.49,1.49,1.49,50.43,50.43,1.49,1.49,50.43,50.43-51.92,51.92,1.49,1.49,51.92-51.92,51.92,51.92,1.49-1.49-51.92-51.92,50.43-50.43,1.49-1.49-1.49-1.49-50.43-50.43-1.49-1.49-1.49,1.49-50.43,50.43-50.43-50.43,50.43-50.43,1.49-1.49,50.43-50.43,51.92,51.92,1.49-1.49-51.92-51.92,50.43-50.43ZM1561.15,152.37l-50.43,50.43-50.43-50.43,50.43-50.43,50.43,50.43ZM1356.45,152.37l-1.49-1.49-50.43-50.43,50.43-50.43,50.43,50.43,1.49,1.49,1.49-1.49,50.43-50.43,50.43,50.43-50.43,50.43-1.49,1.49-50.43,50.43-50.43-50.43ZM1408.37,204.29l50.43-50.43,50.43,50.43-50.43,50.43-50.43-50.43ZM1716.92,411.97l-50.43,50.43-50.43-50.43,50.43-50.43,50.43,50.43ZM1614.56,309.62l50.43,50.43-50.43,50.43-50.43-50.43,50.43-50.43ZM1613.07,411.97l-50.43,50.43-50.43-50.43,50.43-50.43,50.43,50.43ZM1460.29,360.05l50.43-50.43,50.43,50.43-50.43,50.43-50.43-50.43ZM1510.72,514.32l-50.43-50.43,50.43-50.43,50.43,50.43-50.43,50.43ZM1564.13,463.89l50.43-50.43,50.43,50.43-50.43,50.43-50.43-50.43ZM1768.84,463.89l-50.43,50.43-1.49,1.49-50.43,50.43-50.43-50.43,50.43-50.43,1.49-1.49,50.43-50.43,50.43,50.43ZM2029.92,205.78l50.43,50.43-50.43,50.43-50.43-50.43,50.43-50.43ZM1978,150.88l-50.43-50.43,50.43-50.43,50.43,50.43-50.43,50.43Z"/>
    <polygon class="st0" points="1458.8 98.96 1406.88 150.88 1354.96 98.96 1353.47 100.45 1405.39 152.37 1406.88 153.86 1408.37 152.37 1460.29 100.45 1458.8 98.96"/>
    <polygon class="st0" points="2029.92 150.88 2028.44 152.37 1976.52 204.29 1978 205.78 2029.92 153.86 2081.85 205.78 2083.33 204.29 2031.41 152.37 2029.92 150.88"/>
    <rect class="st0" x="1550.83" y="229.2" width="75.53" height="2.1" transform="translate(302.48 1190.75) rotate(-45)"/>
    <path class="st0" d="M1041.95,360.05l1.49,1.49,50.43,50.43,1.49,1.49,1.49-1.49,50.43-50.43,1.49-1.49,50.43-50.43,1.49-1.49,50.43-50.43,1.49-1.49-1.49-1.49-50.43-50.43,51.92-51.92-1.49-1.49-51.92,51.92-1.49,1.49,1.49,1.49,50.43,50.43-50.43,50.43-50.43-50.43-1.49-1.49-1.49,1.49-50.43,50.43-51.92-51.92-1.49,1.49,51.92,51.92-50.43,50.43-1.49,1.49ZM1147.28,257.7l50.43,50.43-50.43,50.43-50.43-50.43,50.43-50.43ZM1095.36,309.62l50.43,50.43-50.43,50.43-50.43-50.43,50.43-50.43Z"/>
    <polygon class="st0" points="1354.96 361.54 1356.45 360.05 1408.37 308.13 1406.88 306.64 1354.96 358.56 1353.47 360.05 1301.55 411.97 1303.04 413.46 1354.96 361.54"/>
    <path class="st0" d="M2083.33,411.97l-1.49-1.49-50.43-50.43-1.49-1.49-1.49,1.49-50.43,50.43-50.43-50.43,50.43-50.43,1.49-1.49-1.49-1.49-50.43-50.43-1.49-1.49-50.43-50.43,50.43-50.43,1.49-1.49-1.49-1.49-51.92-51.92-1.49,1.49,51.92,51.92-50.43,50.43-1.49,1.49,1.49,1.49,50.43,50.43-50.43,50.43-51.92-51.92-1.49,1.49,51.92,51.92-50.43,50.43-50.43-50.43-1.49-1.49-51.92-51.92-1.49,1.49,51.92,51.92,1.49,1.49,50.43,50.43-51.92,51.92,1.49,1.49,51.92-51.92,50.43,50.43,1.49,1.49,1.49-1.49,50.43-50.43,50.43,50.43-50.43,50.43-1.49,1.49-50.43,50.43-50.43-50.43-1.49-1.49-1.49,1.49-50.43,50.43-1.49,1.49-51.92,51.92,1.49,1.49,51.92-51.92,1.49-1.49,50.43-50.43,50.43,50.43-51.92,51.92,1.49,1.49,51.92-51.92,51.92,51.92,1.49-1.49-51.92-51.92,50.43-50.43,51.92,51.92,1.49-1.49-51.92-51.92,50.43-50.43,50.43,50.43,1.49,1.49,50.43,50.43-51.92,51.92,1.49,1.49,51.92-51.92,1.49-1.49-1.49-1.49-50.43-50.43,50.43-50.43,1.49-1.49ZM1926.08,257.7l50.43,50.43-50.43,50.43-50.43-50.43,50.43-50.43ZM1874.16,410.48l-50.43-50.43,50.43-50.43,50.43,50.43-50.43,50.43ZM2029.92,462.4l-50.43-50.43,50.43-50.43,50.43,50.43-50.43,50.43Z"/>
    <polygon class="st0" points="1147.28 465.38 1199.2 517.3 1200.69 515.81 1148.77 463.89 1147.28 462.4 1145.79 463.89 1095.36 514.32 1093.87 515.81 1095.36 517.3 1147.28 569.22 1148.77 567.73 1096.85 515.81 1147.28 465.38"/>
    <rect class="st0" x="1654.67" y="488.8" width="75.53" height="2.1" transform="translate(149.32 1340.21) rotate(-45)"/>
    <path class="st0" d="M1356.45,515.81l-1.49-1.49-50.43-50.43,50.43-50.43,50.43,50.43,1.49,1.49,51.92,51.92,1.49-1.49-51.92-51.92-1.49-1.49-50.43-50.43,50.43-50.43,51.92,51.92,1.49-1.49-51.92-51.92,50.43-50.43,1.49-1.49-1.49-1.49-50.43-50.43-1.49-1.49-51.92-51.92-1.49,1.49,51.92,51.92-50.43,50.43-1.49,1.49-50.43,50.43-1.49,1.49-50.43,50.43-1.49,1.49-50.43,50.43-50.43-50.43,50.43-50.43,1.49-1.49,50.43-50.43,1.49-1.49,50.43-50.43,1.49-1.49-1.49-1.49-50.43-50.43,50.43-50.43,1.49-1.49-1.49-1.49-50.43-50.43,50.43-50.43,1.49-1.49,50.43-50.43,51.92,51.92,1.49-1.49-51.92-51.92-1.49-1.49-1.49,1.49-50.43,50.43-1.49,1.49-50.43,50.43-51.92-51.92-1.49,1.49,51.92,51.92-50.43,50.43-1.49,1.49-50.43,50.43-50.43-50.43,50.43-50.43,1.49-1.49-1.49-1.49-50.43-50.43,51.92-51.92-1.49-1.49-51.92,51.92-1.49,1.49-50.43,50.43-1.49,1.49,1.49,1.49,50.43,50.43-50.43,50.43-1.49,1.49,1.49,1.49,50.43,50.43,1.49,1.49,1.49-1.49,50.43-50.43,51.92,51.92,1.49-1.49-51.92-51.92,50.43-50.43,1.49-1.49,50.43-50.43,50.43,50.43-50.43,50.43-1.49,1.49,1.49,1.49,50.43,50.43-50.43,50.43-1.49,1.49-50.43,50.43-1.49,1.49-50.43,50.43-1.49,1.49-50.43,50.43-51.92-51.92-1.49,1.49,51.92,51.92-50.43,50.43-1.49,1.49,1.49,1.49,51.92,51.92,1.49-1.49-51.92-51.92,50.43-50.43,1.49-1.49,50.43-50.43,50.43,50.43,1.49,1.49,50.43,50.43-50.43,50.43-51.92-51.92-1.49,1.49,51.92,51.92,1.49,1.49,1.49-1.49,50.43-50.43,50.43,50.43,1.49,1.49,1.49-1.49,50.43-50.43,1.49-1.49ZM1044.93,100.45l50.43-50.43,50.43,50.43-50.43,50.43-50.43-50.43ZM1095.36,254.72l-50.43-50.43,50.43-50.43,50.43,50.43-50.43,50.43ZM1303.04,361.54l1.49-1.49,50.43-50.43,1.49-1.49,50.43-50.43,50.43,50.43-50.43,50.43-1.49,1.49-50.43,50.43-1.49,1.49-50.43,50.43-50.43-50.43,50.43-50.43ZM1200.69,463.89l50.43-50.43,50.43,50.43-50.43,50.43-50.43-50.43ZM1303.04,566.24l-50.43-50.43,50.43-50.43,50.43,50.43-50.43,50.43Z"/>
    <rect class="st0" x="1498.91" y="540.72" width="75.53" height="2.1" transform="translate(66.99 1245.27) rotate(-45)"/>
    <rect class="st0" x="1758.51" y="540.72" width="75.53" height="2.1" transform="translate(143.03 1428.84) rotate(-45)"/>
    <polygon class="st0" points="2031.41 515.81 2029.92 514.32 1978 462.4 1976.52 463.89 2028.44 515.81 1978 566.24 1926.08 514.32 1924.6 515.81 1976.52 567.73 1978 569.22 1979.49 567.73 2029.92 517.3 2031.41 515.81"/>
  </g>
  <g>
    <rect class="st0" x="-6.59" y="592.64" width="75.53" height="2.1" transform="translate(-410.67 195.93) rotate(-45)"/>
    <rect class="st0" x="512.61" y="592.64" width="75.53" height="2.1" transform="translate(-258.61 563.06) rotate(-45)"/>
    <rect class="st0" x="964.68" y="555.93" width="2.1" height="75.53" transform="translate(-136.95 856.77) rotate(-45)"/>
    <polygon class="st0" points="107.57 619.65 109.06 621.14 159.49 671.57 107.57 723.49 109.06 724.98 160.98 673.06 162.47 671.57 160.98 670.08 110.55 619.65 160.98 569.22 211.41 619.65 212.9 621.14 214.39 619.65 266.31 567.73 264.82 566.24 212.9 618.16 162.47 567.73 160.98 566.24 159.49 567.73 109.06 618.16 107.57 619.65"/>
    <path class="st0" d="M472.5,621.14l50.43,50.43,1.49,1.49,50.43,50.43-50.43,50.43-1.49,1.49-50.43,50.43-1.49,1.49,1.49,1.49,50.43,50.43,1.49,1.49,1.49-1.49,50.43-50.43,50.43,50.43,1.49,1.49,51.92,51.92,1.49-1.49-51.92-51.92-1.49-1.49-50.43-50.43,50.43-50.43,1.49-1.49,50.43-50.43,50.43,50.43,1.49,1.49,1.49-1.49,51.92-51.92-1.49-1.49-51.92,51.92-50.43-50.43,50.43-50.43,1.49-1.49,50.43-50.43,1.49-1.49,50.43-50.43,51.92,51.92,1.49-1.49-51.92-51.92-1.49-1.49-1.49,1.49-50.43,50.43-51.92-51.92-1.49,1.49,51.92,51.92-50.43,50.43-51.92-51.92-1.49,1.49,51.92,51.92-50.43,50.43-1.49,1.49-50.43,50.43-50.43-50.43,50.43-50.43,1.49-1.49-1.49-1.49-50.43-50.43,51.92-51.92-1.49-1.49-51.92,51.92-1.49,1.49-50.43,50.43-50.43-50.43,51.92-51.92-1.49-1.49-51.92,51.92-51.92-51.92-1.49,1.49,51.92,51.92,1.49,1.49ZM626.77,775.41l-50.43,50.43-1.49,1.49-50.43,50.43-50.43-50.43,50.43-50.43,1.49-1.49,50.43-50.43,50.43,50.43ZM576.34,621.14l50.43,50.43-50.43,50.43-50.43-50.43,50.43-50.43Z"/>
    <polygon class="st0" points="626.77 619.65 628.26 621.14 678.69 671.57 626.77 723.49 628.26 724.98 680.18 673.06 681.67 671.57 680.18 670.08 629.75 619.65 680.18 569.22 732.1 621.14 733.59 619.65 681.67 567.73 680.18 566.24 678.69 567.73 628.26 618.16 626.77 619.65"/>
    <path class="st0" d="M1043.62,621.14l1.49-1.49-1.49-1.49-51.92-51.92-1.49,1.49,51.92,51.92-50.43,50.43-50.43-50.43-1.49-1.49-51.92-51.92-1.49,1.49,51.92,51.92-50.43,50.43-50.43-50.43-1.49-1.49-1.49,1.49-50.43,50.43-1.49,1.49-51.92,51.92,1.49,1.49,51.92-51.92,50.43,50.43-50.43,50.43-1.49,1.49-50.43,50.43-50.43-50.43-1.49-1.49-1.49,1.49-50.43,50.43-1.49,1.49,1.49,1.49,50.43,50.43,1.49,1.49,50.43,50.43-50.43,50.43-50.43-50.43-1.49-1.49-50.43-50.43-1.49-1.49-1.49,1.49-50.43,50.43-50.43-50.43-1.49-1.49-50.43-50.43,50.43-50.43,1.49-1.49,50.43-50.43,1.49-1.49-1.49-1.49-50.43-50.43-1.49-1.49-50.43-50.43-1.49-1.49-51.92-51.92-1.49,1.49,51.92,51.92-50.43,50.43-50.43-50.43-1.49-1.49-1.49,1.49-50.43,50.43-1.49,1.49,1.49,1.49,50.43,50.43-50.43,50.43-1.49,1.49,1.49,1.49,50.43,50.43-50.43,50.43-1.49,1.49-50.43,50.43-1.49,1.49-51.92,51.92,1.49,1.49,51.92-51.92,1.49-1.49,50.43-50.43,1.49-1.49,50.43-50.43,1.49-1.49-1.49-1.49-50.43-50.43,50.43-50.43,50.43,50.43,1.49,1.49,50.43,50.43,1.49,1.49,50.43,50.43-50.43,50.43-1.49,1.49,1.49,1.49,50.43,50.43-50.43,50.43-51.92-51.92-1.49,1.49,51.92,51.92,1.49,1.49,50.43,50.43-50.43,50.43-50.43-50.43-1.49-1.49-51.92-51.92-1.49,1.49,51.92,51.92-51.92,51.92,1.49,1.49,51.92-51.92,50.43,50.43,1.49,1.49,1.49-1.49,50.43-50.43,1.49-1.49,50.43-50.43,50.43,50.43-51.92,51.92,1.49,1.49,51.92-51.92,50.43,50.43,1.49,1.49,1.49-1.49,50.43-50.43,1.49-1.49,50.43-50.43,1.49-1.49,50.43-50.43,50.43,50.43,1.49,1.49,1.49-1.49,51.92-51.92-1.49-1.49-51.92,51.92-50.43-50.43-1.49-1.49-1.49,1.49-50.43,50.43-50.43-50.43,50.43-50.43,1.49-1.49-1.49-1.49-50.43-50.43-1.49-1.49-50.43-50.43,50.43-50.43,50.43,50.43,1.49,1.49,51.92,51.92,1.49-1.49-51.92-51.92,50.43-50.43,51.92,51.92,1.49-1.49-51.92-51.92,50.43-50.43,1.49-1.49-1.49-1.49-50.43-50.43,50.43-50.43,50.43,50.43,1.49,1.49,50.43,50.43-50.43,50.43-1.49,1.49,1.49,1.49,50.43,50.43,1.49,1.49,50.43,50.43-51.92,51.92,1.49,1.49,51.92-51.92,51.92,51.92,1.49-1.49-51.92-51.92,50.43-50.43,1.49-1.49-1.49-1.49-50.43-50.43-1.49-1.49-1.49,1.49-50.43,50.43-50.43-50.43,50.43-50.43,1.49-1.49,50.43-50.43,51.92,51.92,1.49-1.49-51.92-51.92,50.43-50.43ZM522.93,723.49l-50.43,50.43-50.43-50.43,50.43-50.43,50.43,50.43ZM318.23,723.49l-1.49-1.49-50.43-50.43,50.43-50.43,50.43,50.43,1.49,1.49,1.49-1.49,50.43-50.43,50.43,50.43-50.43,50.43-1.49,1.49-50.43,50.43-50.43-50.43ZM370.15,775.41l50.43-50.43,50.43,50.43-50.43,50.43-50.43-50.43ZM678.69,983.09l-50.43,50.43-50.43-50.43,50.43-50.43,50.43,50.43ZM576.34,880.74l50.43,50.43-50.43,50.43-50.43-50.43,50.43-50.43ZM574.85,983.09l-50.43,50.43-50.43-50.43,50.43-50.43,50.43,50.43ZM422.07,931.17l50.43-50.43,50.43,50.43-50.43,50.43-50.43-50.43ZM472.5,1085.45l-50.43-50.43,50.43-50.43,50.43,50.43-50.43,50.43ZM525.91,1035.01l50.43-50.43,50.43,50.43-50.43,50.43-50.43-50.43ZM730.61,1035.01l-50.43,50.43-1.49,1.49-50.43,50.43-50.43-50.43,50.43-50.43,1.49-1.49,50.43-50.43,50.43,50.43ZM991.7,776.9l50.43,50.43-50.43,50.43-50.43-50.43,50.43-50.43ZM939.78,722.01l-50.43-50.43,50.43-50.43,50.43,50.43-50.43,50.43Z"/>
    <polygon class="st0" points="420.58 670.08 368.66 722.01 316.74 670.08 315.25 671.57 367.17 723.49 368.66 724.98 370.15 723.49 422.07 671.57 420.58 670.08"/>
    <polygon class="st0" points="991.7 722.01 990.21 723.49 938.29 775.41 939.78 776.9 991.7 724.98 1043.62 776.9 1045.11 775.41 993.19 723.49 991.7 722.01"/>
    <rect class="st0" x="512.61" y="800.32" width="75.53" height="2.1" transform="translate(-405.46 623.89) rotate(-45)"/>
    <path class="st0" d="M3.73,931.17l1.49,1.49,50.43,50.43,1.49,1.49,1.49-1.49,50.43-50.43,1.49-1.49,50.43-50.43,1.49-1.49,50.43-50.43,1.49-1.49-1.49-1.49-50.43-50.43,51.92-51.92-1.49-1.49-51.92,51.92-1.49,1.49,1.49,1.49,50.43,50.43-50.43,50.43-50.43-50.43-1.49-1.49-1.49,1.49-50.43,50.43-51.92-51.92-1.49,1.49,51.92,51.92-50.43,50.43-1.49,1.49ZM109.06,828.82l50.43,50.43-50.43,50.43-50.43-50.43,50.43-50.43ZM57.14,880.74l50.43,50.43-50.43,50.43-50.43-50.43,50.43-50.43Z"/>
    <polygon class="st0" points="316.74 932.66 318.23 931.17 370.15 879.25 368.66 877.77 316.74 929.69 315.25 931.17 263.33 983.09 264.82 984.58 316.74 932.66"/>
    <path class="st0" d="M1045.11,983.09l-1.49-1.49-50.43-50.43-1.49-1.49-1.49,1.49-50.43,50.43-50.43-50.43,50.43-50.43,1.49-1.49-1.49-1.49-50.43-50.43-1.49-1.49-50.43-50.43,50.43-50.43,1.49-1.49-1.49-1.49-51.92-51.92-1.49,1.49,51.92,51.92-50.43,50.43-1.49,1.49,1.49,1.49,50.43,50.43-50.43,50.43-51.92-51.92-1.49,1.49,51.92,51.92-50.43,50.43-50.43-50.43-1.49-1.49-51.92-51.92-1.49,1.49,51.92,51.92,1.49,1.49,50.43,50.43-51.92,51.92,1.49,1.49,51.92-51.92,50.43,50.43,1.49,1.49,1.49-1.49,50.43-50.43,50.43,50.43-50.43,50.43-1.49,1.49-50.43,50.43-50.43-50.43-1.49-1.49-1.49,1.49-50.43,50.43-1.49,1.49-51.92,51.92,1.49,1.49,51.92-51.92,1.49-1.49,50.43-50.43,50.43,50.43-51.92,51.92,1.49,1.49,51.92-51.92,51.92,51.92,1.49-1.49-51.92-51.92,50.43-50.43,51.92,51.92,1.49-1.49-51.92-51.92,50.43-50.43,50.43,50.43,1.49,1.49,50.43,50.43-51.92,51.92,1.49,1.49,51.92-51.92,1.49-1.49-1.49-1.49-50.43-50.43,50.43-50.43,1.49-1.49ZM887.86,828.82l50.43,50.43-50.43,50.43-50.43-50.43,50.43-50.43ZM835.94,981.61l-50.43-50.43,50.43-50.43,50.43,50.43-50.43,50.43ZM991.7,1033.53l-50.43-50.43,50.43-50.43,50.43,50.43-50.43,50.43Z"/>
    <polygon class="st0" points="109.06 1036.5 160.98 1088.42 162.47 1086.94 110.55 1035.01 109.06 1033.53 107.57 1035.01 57.14 1085.45 55.65 1086.94 57.14 1088.42 109.06 1140.34 110.55 1138.86 58.63 1086.94 109.06 1036.5"/>
    <rect class="st0" x="616.45" y="1059.92" width="75.53" height="2.1" transform="translate(-558.61 773.35) rotate(-45)"/>
    <path class="st0" d="M318.23,1086.94l-1.49-1.49-50.43-50.43,50.43-50.43,50.43,50.43,1.49,1.49,51.92,51.92,1.49-1.49-51.92-51.92-1.49-1.49-50.43-50.43,50.43-50.43,51.92,51.92,1.49-1.49-51.92-51.92,50.43-50.43,1.49-1.49-1.49-1.49-50.43-50.43-1.49-1.49-51.92-51.92-1.49,1.49,51.92,51.92-50.43,50.43-1.49,1.49-50.43,50.43-1.49,1.49-50.43,50.43-1.49,1.49-50.43,50.43-50.43-50.43,50.43-50.43,1.49-1.49,50.43-50.43,1.49-1.49,50.43-50.43,1.49-1.49-1.49-1.49-50.43-50.43,50.43-50.43,1.49-1.49-1.49-1.49-50.43-50.43,50.43-50.43,1.49-1.49,50.43-50.43,51.92,51.92,1.49-1.49-51.92-51.92-1.49-1.49-1.49,1.49-50.43,50.43-1.49,1.49-50.43,50.43-51.92-51.92-1.49,1.49,51.92,51.92-50.43,50.43-1.49,1.49-50.43,50.43-50.43-50.43,50.43-50.43,1.49-1.49-1.49-1.49-50.43-50.43,51.92-51.92-1.49-1.49-51.92,51.92-1.49,1.49-50.43,50.43-1.49,1.49,1.49,1.49,50.43,50.43-50.43,50.43-1.49,1.49,1.49,1.49,50.43,50.43,1.49,1.49,1.49-1.49,50.43-50.43,51.92,51.92,1.49-1.49-51.92-51.92,50.43-50.43,1.49-1.49,50.43-50.43,50.43,50.43-50.43,50.43-1.49,1.49,1.49,1.49,50.43,50.43-50.43,50.43-1.49,1.49-50.43,50.43-1.49,1.49-50.43,50.43-1.49,1.49-50.43,50.43-51.92-51.92-1.49,1.49,51.92,51.92-50.43,50.43-1.49,1.49,1.49,1.49,51.92,51.92,1.49-1.49-51.92-51.92,50.43-50.43,1.49-1.49,50.43-50.43,50.43,50.43,1.49,1.49,50.43,50.43-50.43,50.43-51.92-51.92-1.49,1.49,51.92,51.92,1.49,1.49,1.49-1.49,50.43-50.43,50.43,50.43,1.49,1.49,1.49-1.49,50.43-50.43,1.49-1.49ZM6.7,671.57l50.43-50.43,50.43,50.43-50.43,50.43-50.43-50.43ZM57.14,825.85l-50.43-50.43,50.43-50.43,50.43,50.43-50.43,50.43ZM264.82,932.66l1.49-1.49,50.43-50.43,1.49-1.49,50.43-50.43,50.43,50.43-50.43,50.43-1.49,1.49-50.43,50.43-1.49,1.49-50.43,50.43-50.43-50.43,50.43-50.43ZM162.47,1035.01l50.43-50.43,50.43,50.43-50.43,50.43-50.43-50.43ZM264.82,1137.37l-50.43-50.43,50.43-50.43,50.43,50.43-50.43,50.43Z"/>
    <rect class="st0" x="460.69" y="1111.84" width="75.53" height="2.1" transform="translate(-640.94 678.42) rotate(-45)"/>
    <rect class="st0" x="720.29" y="1111.84" width="75.53" height="2.1" transform="translate(-564.91 861.98) rotate(-45)"/>
    <polygon class="st0" points="993.19 1086.94 991.7 1085.45 939.78 1033.53 938.29 1035.01 990.21 1086.94 939.78 1137.37 887.86 1085.45 886.37 1086.94 938.29 1138.86 939.78 1140.34 941.27 1138.86 991.7 1088.42 993.19 1086.94"/>
  </g>
  <g>
    <rect class="st0" x="1031.82" y="592.64" width="75.53" height="2.1" transform="translate(-106.53 930.2) rotate(-45)"/>
    <rect class="st0" x="1551.02" y="592.64" width="75.53" height="2.1" transform="translate(45.54 1297.33) rotate(-45)"/>
    <rect class="st0" x="2003.09" y="555.93" width="2.1" height="75.53" transform="translate(167.19 1591.03) rotate(-45)"/>
    <polygon class="st0" points="1145.98 619.65 1147.46 621.14 1197.9 671.57 1145.98 723.49 1147.46 724.98 1199.38 673.06 1200.87 671.57 1199.38 670.08 1148.95 619.65 1199.38 569.22 1249.82 619.65 1251.3 621.14 1252.79 619.65 1304.71 567.73 1303.22 566.24 1251.3 618.16 1200.87 567.73 1199.38 566.24 1197.9 567.73 1147.46 618.16 1145.98 619.65"/>
    <path class="st0" d="M1510.91,621.14l50.43,50.43,1.49,1.49,50.43,50.43-50.43,50.43-1.49,1.49-50.43,50.43-1.49,1.49,1.49,1.49,50.43,50.43,1.49,1.49,1.49-1.49,50.43-50.43,50.43,50.43,1.49,1.49,51.92,51.92,1.49-1.49-51.92-51.92-1.49-1.49-50.43-50.43,50.43-50.43,1.49-1.49,50.43-50.43,50.43,50.43,1.49,1.49,1.49-1.49,51.92-51.92-1.49-1.49-51.92,51.92-50.43-50.43,50.43-50.43,1.49-1.49,50.43-50.43,1.49-1.49,50.43-50.43,51.92,51.92,1.49-1.49-51.92-51.92-1.49-1.49-1.49,1.49-50.43,50.43-51.92-51.92-1.49,1.49,51.92,51.92-50.43,50.43-51.92-51.92-1.49,1.49,51.92,51.92-50.43,50.43-1.49,1.49-50.43,50.43-50.43-50.43,50.43-50.43,1.49-1.49-1.49-1.49-50.43-50.43,51.92-51.92-1.49-1.49-51.92,51.92-1.49,1.49-50.43,50.43-50.43-50.43,51.92-51.92-1.49-1.49-51.92,51.92-51.92-51.92-1.49,1.49,51.92,51.92,1.49,1.49ZM1665.18,775.41l-50.43,50.43-1.49,1.49-50.43,50.43-50.43-50.43,50.43-50.43,1.49-1.49,50.43-50.43,50.43,50.43ZM1614.75,621.14l50.43,50.43-50.43,50.43-50.43-50.43,50.43-50.43Z"/>
    <polygon class="st0" points="1665.18 619.65 1666.67 621.14 1717.1 671.57 1665.18 723.49 1666.67 724.98 1718.59 673.06 1720.07 671.57 1718.59 670.08 1668.15 619.65 1718.59 569.22 1770.51 621.14 1771.99 619.65 1720.07 567.73 1718.59 566.24 1717.1 567.73 1666.67 618.16 1665.18 619.65"/>
    <path class="st0" d="M2082.03,621.14l1.49-1.49-1.49-1.49-51.92-51.92-1.49,1.49,51.92,51.92-50.43,50.43-50.43-50.43-1.49-1.49-51.92-51.92-1.49,1.49,51.92,51.92-50.43,50.43-50.43-50.43-1.49-1.49-1.49,1.49-50.43,50.43-1.49,1.49-51.92,51.92,1.49,1.49,51.92-51.92,50.43,50.43-50.43,50.43-1.49,1.49-50.43,50.43-50.43-50.43-1.49-1.49-1.49,1.49-50.43,50.43-1.49,1.49,1.49,1.49,50.43,50.43,1.49,1.49,50.43,50.43-50.43,50.43-50.43-50.43-1.49-1.49-50.43-50.43-1.49-1.49-1.49,1.49-50.43,50.43-50.43-50.43-1.49-1.49-50.43-50.43,50.43-50.43,1.49-1.49,50.43-50.43,1.49-1.49-1.49-1.49-50.43-50.43-1.49-1.49-50.43-50.43-1.49-1.49-51.92-51.92-1.49,1.49,51.92,51.92-50.43,50.43-50.43-50.43-1.49-1.49-1.49,1.49-50.43,50.43-1.49,1.49,1.49,1.49,50.43,50.43-50.43,50.43-1.49,1.49,1.49,1.49,50.43,50.43-50.43,50.43-1.49,1.49-50.43,50.43-1.49,1.49-51.92,51.92,1.49,1.49,51.92-51.92,1.49-1.49,50.43-50.43,1.49-1.49,50.43-50.43,1.49-1.49-1.49-1.49-50.43-50.43,50.43-50.43,50.43,50.43,1.49,1.49,50.43,50.43,1.49,1.49,50.43,50.43-50.43,50.43-1.49,1.49,1.49,1.49,50.43,50.43-50.43,50.43-51.92-51.92-1.49,1.49,51.92,51.92,1.49,1.49,50.43,50.43-50.43,50.43-50.43-50.43-1.49-1.49-51.92-51.92-1.49,1.49,51.92,51.92-51.92,51.92,1.49,1.49,51.92-51.92,50.43,50.43,1.49,1.49,1.49-1.49,50.43-50.43,1.49-1.49,50.43-50.43,50.43,50.43-51.92,51.92,1.49,1.49,51.92-51.92,50.43,50.43,1.49,1.49,1.49-1.49,50.43-50.43,1.49-1.49,50.43-50.43,1.49-1.49,50.43-50.43,50.43,50.43,1.49,1.49,1.49-1.49,51.92-51.92-1.49-1.49-51.92,51.92-50.43-50.43-1.49-1.49-1.49,1.49-50.43,50.43-50.43-50.43,50.43-50.43,1.49-1.49-1.49-1.49-50.43-50.43-1.49-1.49-50.43-50.43,50.43-50.43,50.43,50.43,1.49,1.49,51.92,51.92,1.49-1.49-51.92-51.92,50.43-50.43,51.92,51.92,1.49-1.49-51.92-51.92,50.43-50.43,1.49-1.49-1.49-1.49-50.43-50.43,50.43-50.43,50.43,50.43,1.49,1.49,50.43,50.43-50.43,50.43-1.49,1.49,1.49,1.49,50.43,50.43,1.49,1.49,50.43,50.43-51.92,51.92,1.49,1.49,51.92-51.92,51.92,51.92,1.49-1.49-51.92-51.92,50.43-50.43,1.49-1.49-1.49-1.49-50.43-50.43-1.49-1.49-1.49,1.49-50.43,50.43-50.43-50.43,50.43-50.43,1.49-1.49,50.43-50.43,51.92,51.92,1.49-1.49-51.92-51.92,50.43-50.43ZM1561.34,723.49l-50.43,50.43-50.43-50.43,50.43-50.43,50.43,50.43ZM1356.63,723.49l-1.49-1.49-50.43-50.43,50.43-50.43,50.43,50.43,1.49,1.49,1.49-1.49,50.43-50.43,50.43,50.43-50.43,50.43-1.49,1.49-50.43,50.43-50.43-50.43ZM1408.55,775.41l50.43-50.43,50.43,50.43-50.43,50.43-50.43-50.43ZM1717.1,983.09l-50.43,50.43-50.43-50.43,50.43-50.43,50.43,50.43ZM1614.75,880.74l50.43,50.43-50.43,50.43-50.43-50.43,50.43-50.43ZM1613.26,983.09l-50.43,50.43-50.43-50.43,50.43-50.43,50.43,50.43ZM1460.47,931.17l50.43-50.43,50.43,50.43-50.43,50.43-50.43-50.43ZM1510.91,1085.45l-50.43-50.43,50.43-50.43,50.43,50.43-50.43,50.43ZM1564.31,1035.01l50.43-50.43,50.43,50.43-50.43,50.43-50.43-50.43ZM1769.02,1035.01l-50.43,50.43-1.49,1.49-50.43,50.43-50.43-50.43,50.43-50.43,1.49-1.49,50.43-50.43,50.43,50.43ZM2030.11,776.9l50.43,50.43-50.43,50.43-50.43-50.43,50.43-50.43ZM1978.19,722l-50.43-50.43,50.43-50.43,50.43,50.43-50.43,50.43Z"/>
    <polygon class="st0" points="1458.98 670.08 1407.06 722 1355.14 670.08 1353.66 671.57 1405.58 723.49 1407.06 724.98 1408.55 723.49 1460.47 671.57 1458.98 670.08"/>
    <polygon class="st0" points="2030.11 722 2028.62 723.49 1976.7 775.41 1978.19 776.9 2030.11 724.98 2082.03 776.9 2083.52 775.41 2031.6 723.49 2030.11 722"/>
    <rect class="st0" x="1551.02" y="800.32" width="75.53" height="2.1" transform="translate(-101.31 1358.15) rotate(-45)"/>
    <path class="st0" d="M1042.13,931.17l1.49,1.49,50.43,50.43,1.49,1.49,1.49-1.49,50.43-50.43,1.49-1.49,50.43-50.43,1.49-1.49,50.43-50.43,1.49-1.49-1.49-1.49-50.43-50.43,51.92-51.92-1.49-1.49-51.92,51.92-1.49,1.49,1.49,1.49,50.43,50.43-50.43,50.43-50.43-50.43-1.49-1.49-1.49,1.49-50.43,50.43-51.92-51.92-1.49,1.49,51.92,51.92-50.43,50.43-1.49,1.49ZM1147.46,828.82l50.43,50.43-50.43,50.43-50.43-50.43,50.43-50.43ZM1095.54,880.74l50.43,50.43-50.43,50.43-50.43-50.43,50.43-50.43Z"/>
    <polygon class="st0" points="1355.14 932.66 1356.63 931.17 1408.55 879.25 1407.06 877.77 1355.14 929.69 1353.66 931.17 1301.74 983.09 1303.22 984.58 1355.14 932.66"/>
    <path class="st0" d="M2083.52,983.09l-1.49-1.49-50.43-50.43-1.49-1.49-1.49,1.49-50.43,50.43-50.43-50.43,50.43-50.43,1.49-1.49-1.49-1.49-50.43-50.43-1.49-1.49-50.43-50.43,50.43-50.43,1.49-1.49-1.49-1.49-51.92-51.92-1.49,1.49,51.92,51.92-50.43,50.43-1.49,1.49,1.49,1.49,50.43,50.43-50.43,50.43-51.92-51.92-1.49,1.49,51.92,51.92-50.43,50.43-50.43-50.43-1.49-1.49-51.92-51.92-1.49,1.49,51.92,51.92,1.49,1.49,50.43,50.43-51.92,51.92,1.49,1.49,51.92-51.92,50.43,50.43,1.49,1.49,1.49-1.49,50.43-50.43,50.43,50.43-50.43,50.43-1.49,1.49-50.43,50.43-50.43-50.43-1.49-1.49-1.49,1.49-50.43,50.43-1.49,1.49-51.92,51.92,1.49,1.49,51.92-51.92,1.49-1.49,50.43-50.43,50.43,50.43-51.92,51.92,1.49,1.49,51.92-51.92,51.92,51.92,1.49-1.49-51.92-51.92,50.43-50.43,51.92,51.92,1.49-1.49-51.92-51.92,50.43-50.43,50.43,50.43,1.49,1.49,50.43,50.43-51.92,51.92,1.49,1.49,51.92-51.92,1.49-1.49-1.49-1.49-50.43-50.43,50.43-50.43,1.49-1.49ZM1926.27,828.82l50.43,50.43-50.43,50.43-50.43-50.43,50.43-50.43ZM1874.35,981.61l-50.43-50.43,50.43-50.43,50.43,50.43-50.43,50.43ZM2030.11,1033.53l-50.43-50.43,50.43-50.43,50.43,50.43-50.43,50.43Z"/>
    <polygon class="st0" points="1147.46 1036.5 1199.38 1088.42 1200.87 1086.93 1148.95 1035.01 1147.46 1033.53 1145.98 1035.01 1095.54 1085.45 1094.05 1086.93 1095.54 1088.42 1147.46 1140.34 1148.95 1138.85 1097.03 1086.93 1147.46 1036.5"/>
    <rect class="st0" x="1654.85" y="1059.92" width="75.53" height="2.1" transform="translate(-254.47 1507.61) rotate(-45)"/>
    <path class="st0" d="M1356.63,1086.93l-1.49-1.49-50.43-50.43,50.43-50.43,50.43,50.43,1.49,1.49,51.92,51.92,1.49-1.49-51.92-51.92-1.49-1.49-50.43-50.43,50.43-50.43,51.92,51.92,1.49-1.49-51.92-51.92,50.43-50.43,1.49-1.49-1.49-1.49-50.43-50.43-1.49-1.49-51.92-51.92-1.49,1.49,51.92,51.92-50.43,50.43-1.49,1.49-50.43,50.43-1.49,1.49-50.43,50.43-1.49,1.49-50.43,50.43-50.43-50.43,50.43-50.43,1.49-1.49,50.43-50.43,1.49-1.49,50.43-50.43,1.49-1.49-1.49-1.49-50.43-50.43,50.43-50.43,1.49-1.49-1.49-1.49-50.43-50.43,50.43-50.43,1.49-1.49,50.43-50.43,51.92,51.92,1.49-1.49-51.92-51.92-1.49-1.49-1.49,1.49-50.43,50.43-1.49,1.49-50.43,50.43-51.92-51.92-1.49,1.49,51.92,51.92-50.43,50.43-1.49,1.49-50.43,50.43-50.43-50.43,50.43-50.43,1.49-1.49-1.49-1.49-50.43-50.43,51.92-51.92-1.49-1.49-51.92,51.92-1.49,1.49-50.43,50.43-1.49,1.49,1.49,1.49,50.43,50.43-50.43,50.43-1.49,1.49,1.49,1.49,50.43,50.43,1.49,1.49,1.49-1.49,50.43-50.43,51.92,51.92,1.49-1.49-51.92-51.92,50.43-50.43,1.49-1.49,50.43-50.43,50.43,50.43-50.43,50.43-1.49,1.49,1.49,1.49,50.43,50.43-50.43,50.43-1.49,1.49-50.43,50.43-1.49,1.49-50.43,50.43-1.49,1.49-50.43,50.43-51.92-51.92-1.49,1.49,51.92,51.92-50.43,50.43-1.49,1.49,1.49,1.49,51.92,51.92,1.49-1.49-51.92-51.92,50.43-50.43,1.49-1.49,50.43-50.43,50.43,50.43,1.49,1.49,50.43,50.43-50.43,50.43-51.92-51.92-1.49,1.49,51.92,51.92,1.49,1.49,1.49-1.49,50.43-50.43,50.43,50.43,1.49,1.49,1.49-1.49,50.43-50.43,1.49-1.49ZM1045.11,671.57l50.43-50.43,50.43,50.43-50.43,50.43-50.43-50.43ZM1095.54,825.84l-50.43-50.43,50.43-50.43,50.43,50.43-50.43,50.43ZM1303.22,932.66l1.49-1.49,50.43-50.43,1.49-1.49,50.43-50.43,50.43,50.43-50.43,50.43-1.49,1.49-50.43,50.43-1.49,1.49-50.43,50.43-50.43-50.43,50.43-50.43ZM1200.87,1035.01l50.43-50.43,50.43,50.43-50.43,50.43-50.43-50.43ZM1303.22,1137.37l-50.43-50.43,50.43-50.43,50.43,50.43-50.43,50.43Z"/>
    <rect class="st0" x="1499.09" y="1111.84" width="75.53" height="2.1" transform="translate(-336.8 1412.68) rotate(-45)"/>
    <rect class="st0" x="1758.69" y="1111.84" width="75.53" height="2.1" transform="translate(-260.77 1596.25) rotate(-45)"/>
    <polygon class="st0" points="2031.6 1086.93 2030.11 1085.45 1978.19 1033.53 1976.7 1035.01 2028.62 1086.93 1978.19 1137.37 1926.27 1085.45 1924.78 1086.93 1976.7 1138.85 1978.19 1140.34 1979.68 1138.85 2030.11 1088.42 2031.6 1086.93"/>
  </g>
</svg>