<?xml version="1.0" encoding="UTF-8"?>
<svg xmlns="http://www.w3.org/2000/svg" version="1.1" xmlns:xlink="http://www.w3.org/1999/xlink" viewBox="0 0 2807 1604">
  <!-- Generator: Adobe Illustrator 30.0.0, SVG Export Plug-In . SVG Version: 2.1.1 Build 123)  -->
  <defs>
    <style>
      .st0 {
        fill: url(#linear-gradient2);
      }

      .st1 {
        fill: url(#linear-gradient36);
      }

      .st2 {
        fill: url(#linear-gradient39);
      }

      .st3 {
        fill: url(#linear-gradient34);
      }

      .st4 {
        fill: url(#linear-gradient33);
      }

      .st5 {
        fill: url(#linear-gradient10);
      }

      .st6 {
        fill: url(#linear-gradient32);
      }

      .st7 {
        fill: url(#linear-gradient21);
      }

      .st8 {
        fill: url(#linear-gradient37);
      }

      .st9 {
        fill: url(#linear-gradient27);
      }

      .st10 {
        fill: url(#linear-gradient53);
      }

      .st11 {
        fill: url(#linear-gradient35);
      }

      .st12 {
        fill: url(#linear-gradient26);
      }

      .st13 {
        fill: url(#linear-gradient1);
      }

      .st14 {
        fill: url(#linear-gradient9);
      }

      .st15 {
        fill: url(#linear-gradient18);
      }

      .st16 {
        fill: url(#linear-gradient23);
      }

      .st17 {
        fill: url(#linear-gradient43);
      }

      .st18 {
        fill: url(#linear-gradient8);
      }

      .st19 {
        fill: url(#linear-gradient11);
      }

      .st20 {
        fill: url(#linear-gradient16);
      }

      .st21 {
        fill: url(#linear-gradient24);
      }

      .st22 {
        fill: url(#linear-gradient30);
      }

      .st23 {
        fill: url(#linear-gradient46);
      }

      .st24 {
        fill: url(#linear-gradient22);
      }

      .st25 {
        isolation: isolate;
      }

      .st26 {
        fill: url(#linear-gradient29);
      }

      .st27 {
        fill: url(#linear-gradient49);
      }

      .st28 {
        fill: url(#linear-gradient19);
      }

      .st29 {
        fill: url(#linear-gradient12);
      }

      .st30 {
        fill: url(#linear-gradient42);
      }

      .st31 {
        fill: url(#linear-gradient28);
      }

      .st32 {
        fill: url(#linear-gradient40);
      }

      .st33 {
        fill: url(#linear-gradient7);
      }

      .st34 {
        fill: url(#linear-gradient20);
      }

      .st35 {
        fill: url(#linear-gradient4);
      }

      .st36 {
        fill: url(#linear-gradient31);
      }

      .st37 {
        fill: url(#linear-gradient14);
      }

      .st38 {
        fill: url(#linear-gradient5);
      }

      .st39 {
        mix-blend-mode: multiply;
      }

      .st40 {
        fill: url(#linear-gradient3);
      }

      .st41 {
        fill: url(#linear-gradient38);
      }

      .st42 {
        fill: url(#linear-gradient25);
      }

      .st43 {
        fill: url(#linear-gradient52);
      }

      .st44 {
        fill: url(#linear-gradient15);
      }

      .st45 {
        fill: url(#linear-gradient17);
      }

      .st46 {
        fill: url(#linear-gradient54);
      }

      .st47 {
        fill: url(#linear-gradient50);
      }

      .st48 {
        fill: url(#linear-gradient51);
      }

      .st49 {
        fill: url(#linear-gradient6);
      }

      .st50 {
        fill: url(#linear-gradient48);
      }

      .st51 {
        fill: url(#linear-gradient13);
      }

      .st52 {
        fill: url(#linear-gradient45);
      }

      .st53 {
        fill: url(#linear-gradient47);
      }

      .st54 {
        fill: url(#linear-gradient);
      }

      .st55 {
        fill: url(#linear-gradient44);
      }

      .st56 {
        fill: url(#linear-gradient41);
      }
    </style>
    <linearGradient id="linear-gradient" x1="1403.5" y1="3327.22" x2="1403.5" y2="-2466.39" gradientUnits="userSpaceOnUse">
      <stop offset=".34" stop-color="#fff" stop-opacity=".2"/>
      <stop offset="1" stop-color="#000" stop-opacity=".2"/>
    </linearGradient>
    <linearGradient id="linear-gradient1" x1="1403.5" y1="3327.26" x2="1403.5" y2="-2466.35" xlink:href="#linear-gradient"/>
    <linearGradient id="linear-gradient2" x1="1403.5" y1="3327.26" x2="1403.5" y2="-2466.35" xlink:href="#linear-gradient"/>
    <linearGradient id="linear-gradient3" x1="1403.5" y1="3327.25" x2="1403.5" y2="-2466.35" xlink:href="#linear-gradient"/>
    <linearGradient id="linear-gradient4" x1="1403.5" y1="3327.7" x2="1403.5" y2="-2467.2" xlink:href="#linear-gradient"/>
    <linearGradient id="linear-gradient5" x1="1403.5" y1="3327.33" x2="1403.5" y2="-2466.5" xlink:href="#linear-gradient"/>
    <linearGradient id="linear-gradient6" x1="1403.5" y1="3327.33" x2="1403.5" y2="-2466.5" xlink:href="#linear-gradient"/>
    <linearGradient id="linear-gradient7" x1="1403.5" y1="3327.33" x2="1403.5" y2="-2466.5" xlink:href="#linear-gradient"/>
    <linearGradient id="linear-gradient8" x1="1403.5" y1="3327.24" x2="1403.5" y2="-2466.37" xlink:href="#linear-gradient"/>
    <linearGradient id="linear-gradient9" x1="1403.5" y1="3327.26" x2="1403.5" y2="-2466.39" xlink:href="#linear-gradient"/>
    <linearGradient id="linear-gradient10" x1="1403.5" y1="3327.36" x2="1403.5" y2="-2466.52" xlink:href="#linear-gradient"/>
    <linearGradient id="linear-gradient11" x1="1403.5" y1="3327.33" x2="1403.5" y2="-2466.49" xlink:href="#linear-gradient"/>
    <linearGradient id="linear-gradient12" x1="1403.5" y1="3327.34" x2="1403.5" y2="-2466.49" xlink:href="#linear-gradient"/>
    <linearGradient id="linear-gradient13" x1="1403.5" y1="3327.34" x2="1403.5" y2="-2466.49" xlink:href="#linear-gradient"/>
    <linearGradient id="linear-gradient14" x1="1403.5" y1="3327.34" x2="1403.5" y2="-2466.49" xlink:href="#linear-gradient"/>
    <linearGradient id="linear-gradient15" x1="1403.5" y1="3327.89" x2="1403.5" y2="-2467.02" xlink:href="#linear-gradient"/>
    <linearGradient id="linear-gradient16" x1="1403.5" y1="3327.23" x2="1403.5" y2="-2466.39" xlink:href="#linear-gradient"/>
    <linearGradient id="linear-gradient17" x1="1403.5" y1="3327.22" x2="1403.5" y2="-2466.39" xlink:href="#linear-gradient"/>
    <linearGradient id="linear-gradient18" x1="1403.5" y1="3327.22" x2="1403.5" y2="-2466.39" xlink:href="#linear-gradient"/>
    <linearGradient id="linear-gradient19" x1="2851.67" y1="3327.31" x2="2851.67" y2="-2466.45" xlink:href="#linear-gradient"/>
    <linearGradient id="linear-gradient20" x1="2812.82" y1="3327.3" x2="2812.82" y2="-2466.49" xlink:href="#linear-gradient"/>
    <linearGradient id="linear-gradient21" x1="2773.96" y1="3327.31" x2="2773.96" y2="-2466.46" xlink:href="#linear-gradient"/>
    <linearGradient id="linear-gradient22" x1="2735.11" y1="3327.31" x2="2735.11" y2="-2466.48" xlink:href="#linear-gradient"/>
    <linearGradient id="linear-gradient23" x1="2696.25" y1="3327.31" x2="2696.25" y2="-2466.44" xlink:href="#linear-gradient"/>
    <linearGradient id="linear-gradient24" x1="2657.4" y1="3327.31" x2="2657.4" y2="-2466.45" xlink:href="#linear-gradient"/>
    <linearGradient id="linear-gradient25" x1="2618.54" y1="3327.31" x2="2618.54" y2="-2466.47" xlink:href="#linear-gradient"/>
    <linearGradient id="linear-gradient26" x1="2579.69" y1="3327.31" x2="2579.69" y2="-2466.46" xlink:href="#linear-gradient"/>
    <linearGradient id="linear-gradient27" x1="2540.83" y1="3327.31" x2="2540.83" y2="-2466.46" xlink:href="#linear-gradient"/>
    <linearGradient id="linear-gradient28" x1="2501.98" y1="3327.31" x2="2501.98" y2="-2466.46" xlink:href="#linear-gradient"/>
    <linearGradient id="linear-gradient29" x1="2463.13" y1="3326.81" x2="2463.13" y2="-2466.96" xlink:href="#linear-gradient"/>
    <linearGradient id="linear-gradient30" x1="2424.1" y1="3327.31" x2="2424.1" y2="-2466.46" xlink:href="#linear-gradient"/>
    <linearGradient id="linear-gradient31" x1="2385.25" y1="3327.31" x2="2385.25" y2="-2466.46" xlink:href="#linear-gradient"/>
    <linearGradient id="linear-gradient32" x1="2346.4" y1="3327.31" x2="2346.4" y2="-2466.47" xlink:href="#linear-gradient"/>
    <linearGradient id="linear-gradient33" x1="2227.9" y1="3327.31" x2="2227.9" y2="-2466.46" xlink:href="#linear-gradient"/>
    <linearGradient id="linear-gradient34" x1="2043.94" y1="3327.31" x2="2043.94" y2="-2466.46" xlink:href="#linear-gradient"/>
    <linearGradient id="linear-gradient35" x1="1859.98" y1="3327.31" x2="1859.98" y2="-2466.46" xlink:href="#linear-gradient"/>
    <linearGradient id="linear-gradient36" x1="1675.99" y1="3327.31" x2="1675.99" y2="-2466.46" xlink:href="#linear-gradient"/>
    <linearGradient id="linear-gradient37" x1="1492.06" y1="3327.31" x2="1492.06" y2="-2466.46" xlink:href="#linear-gradient"/>
    <linearGradient id="linear-gradient38" x1="1308.12" y1="3327.31" x2="1308.12" y2="-2466.46" xlink:href="#linear-gradient"/>
    <linearGradient id="linear-gradient39" x1="1124.17" y1="3327.31" x2="1124.17" y2="-2466.46" xlink:href="#linear-gradient"/>
    <linearGradient id="linear-gradient40" x1="940.24" y1="3327.31" x2="940.24" y2="-2466.46" xlink:href="#linear-gradient"/>
    <linearGradient id="linear-gradient41" x1="756.26" y1="3327.31" x2="756.26" y2="-2466.46" xlink:href="#linear-gradient"/>
    <linearGradient id="linear-gradient42" x1="572.29" y1="3327.31" x2="572.29" y2="-2466.46" xlink:href="#linear-gradient"/>
    <linearGradient id="linear-gradient43" x1="404.06" y1="3327.32" x2="404.06" y2="-2466.46" xlink:href="#linear-gradient"/>
    <linearGradient id="linear-gradient44" x1="365.22" y1="3327.31" x2="365.22" y2="-2466.47" xlink:href="#linear-gradient"/>
    <linearGradient id="linear-gradient45" x1="326.37" y1="3327.31" x2="326.37" y2="-2466.46" xlink:href="#linear-gradient"/>
    <linearGradient id="linear-gradient46" x1="287.51" y1="3327.31" x2="287.51" y2="-2466.47" xlink:href="#linear-gradient"/>
    <linearGradient id="linear-gradient47" x1="248.49" y1="3327.31" x2="248.49" y2="-2466.47" xlink:href="#linear-gradient"/>
    <linearGradient id="linear-gradient48" x1="209.64" y1="3327.31" x2="209.64" y2="-2466.46" xlink:href="#linear-gradient"/>
    <linearGradient id="linear-gradient49" x1="170.78" y1="3327.31" x2="170.78" y2="-2466.44" xlink:href="#linear-gradient"/>
    <linearGradient id="linear-gradient50" x1="131.93" y1="3327.31" x2="131.93" y2="-2466.48" xlink:href="#linear-gradient"/>
    <linearGradient id="linear-gradient51" x1="93.07" y1="3327.31" x2="93.07" y2="-2466.48" xlink:href="#linear-gradient"/>
    <linearGradient id="linear-gradient52" x1="54.22" y1="3327.31" x2="54.22" y2="-2466.45" xlink:href="#linear-gradient"/>
    <linearGradient id="linear-gradient53" x1="15.36" y1="3327.31" x2="15.36" y2="-2466.47" xlink:href="#linear-gradient"/>
    <linearGradient id="linear-gradient54" x1="-23.49" y1="3327.3" x2="-23.49" y2="-2466.46" xlink:href="#linear-gradient"/>
  </defs>
  <g class="st25">
    <g id="Layer_1">
      <g class="st39">
        <rect class="st54" x="-113.11" width="3033.21" height="2.68"/>
        <rect class="st13" x="-113.11" y="1578.24" width="3033.21" height="2.68"/>
        <rect class="st0" x="-113.11" y="1490.56" width="3033.21" height="2.68"/>
        <rect class="st40" x="-113.11" y="1402.88" width="3033.21" height="2.68"/>
        <rect class="st35" x="-113.11" y="1315.2" width="3033.21" height="2.68"/>
        <rect class="st38" x="-113.11" y="1227.52" width="3033.21" height="2.68"/>
        <rect class="st49" x="-113.11" y="1139.84" width="3033.21" height="2.68"/>
        <rect class="st33" x="-113.11" y="1052.16" width="3033.21" height="2.68"/>
        <rect class="st18" x="-113.11" y="964.48" width="3033.21" height="2.68"/>
        <rect class="st14" x="-113.11" y="876.8" width="3033.21" height="2.68"/>
        <rect class="st5" x="-113.11" y="789.12" width="3033.21" height="2.68"/>
        <rect class="st19" x="-113.11" y="701.44" width="3033.21" height="2.68"/>
        <rect class="st29" x="-113.11" y="613.76" width="3033.21" height="2.68"/>
        <rect class="st51" x="-113.11" y="526.08" width="3033.21" height="2.68"/>
        <rect class="st37" x="-113.11" y="438.4" width="3033.21" height="2.68"/>
        <rect class="st44" x="-113.11" y="350.72" width="3033.21" height="2.68"/>
        <rect class="st20" x="-113.11" y="263.04" width="3033.21" height="2.68"/>
        <rect class="st45" x="-113.11" y="175.36" width="3033.21" height="2.68"/>
        <rect class="st15" x="-113.11" y="87.68" width="3033.21" height="2.68"/>
        <path class="st28" d="M2920.11,200c-23.52-17.68-44.09-35.31-61.27-52.67-46.77-47.27-62.54-87.91-67.78-107.92-6.28-24.03-5-37.8-4.99-37.93l-2.67-.27c-.06.57-1.36,14.32,5.06,38.88,5.31,20.27,21.26,61.41,68.47,109.13,17.66,17.85,38.87,35.98,63.18,54.14v-3.35Z"/>
        <path class="st34" d="M2920.11,259.04c-18.64-11.57-36.02-23.07-52.03-34.43-36.42-25.87-66.97-51.86-90.78-77.26-44.31-47.27-59.25-87.92-64.22-107.93-5.97-24.09-4.74-37.82-4.73-37.95l-2.67-.26c-.06.57-1.29,14.27,4.8,38.86,5.03,20.27,20.14,61.41,64.87,109.12,23.94,25.53,54.62,51.64,91.19,77.61,16.45,11.68,34.37,23.49,53.58,35.38v-3.14Z"/>
        <path class="st7" d="M2920.11,312.84c-53.6-29.72-100.26-59.37-138.62-88.21-34.39-25.85-63.23-51.85-85.74-77.25-41.85-47.28-55.96-87.93-60.65-107.95-5.65-24.14-4.48-37.84-4.47-37.97l-2.67-.25c-.05.57-1.23,14.22,4.53,38.83,4.75,20.26,19.02,61.39,61.26,109.11,22.62,25.54,51.6,51.65,86.13,77.62,38.78,29.14,85.98,59.12,140.24,89.14v-3.08Z"/>
        <path class="st24" d="M2920.11,364.88c-32.25-16.62-62.32-33.03-89.88-49.13-52.52-30.68-98.05-61.33-135.33-91.1-32.37-25.86-59.51-51.85-80.68-77.24-39.39-47.28-52.68-87.93-57.09-107.96-5.33-24.19-4.22-37.86-4.21-38l-2.67-.24c-.05.57-1.17,14.16,4.26,38.81,4.47,20.26,17.9,61.38,57.65,109.1,21.29,25.54,48.56,51.65,81.07,77.62,37.38,29.85,83.02,60.57,135.65,91.32,27.95,16.33,58.47,32.98,91.23,49.84v-3.02Z"/>
        <path class="st16" d="M2920.11,417.16c-70.06-34.5-132.3-68.6-184.94-101.39-49.25-30.69-91.93-61.33-126.86-91.09-30.34-25.85-55.79-51.84-75.64-77.24-35.07-44.91-48.47-83.51-53.53-107.97-5-24.24-3.96-37.88-3.95-38.02l-2.67-.22c-.05.57-1.1,14.12,3.99,38.79,5.12,24.75,18.65,63.76,54.04,109.08,19.96,25.54,45.53,51.66,76.01,77.63,35.03,29.84,77.82,60.56,127.18,91.32,53.01,33.02,115.72,67.37,186.36,102.11v-3Z"/>
        <path class="st21" d="M2920.11,471.1c-36.63-17.6-71.15-34.86-103.12-51.65-67.15-35.27-126.66-70.14-176.87-103.66-45.95-30.67-85.79-61.32-118.39-91.08-28.31-25.85-52.06-51.83-70.59-77.23-32.75-44.92-45.24-83.52-49.97-107.99-4.68-24.29-3.7-37.91-3.69-38.04l-2.67-.21c-.04.56-1.03,14.07,3.72,38.76,4.77,24.74,17.4,63.74,50.43,109.06,18.63,25.55,42.5,51.67,70.95,77.63,32.71,29.85,72.65,60.58,118.71,91.33,50.29,33.57,109.89,68.49,177.11,103.8,32.34,16.98,67.27,34.45,104.37,52.25v-2.98Z"/>
        <path class="st42" d="M2920.11,528.22c-78.68-37.57-149.61-74.13-210.82-108.75-62.36-35.27-117.61-70.14-164.23-103.65-42.66-30.67-79.65-61.31-109.93-91.07-26.3-25.85-48.35-51.84-65.54-77.23-30.41-44.92-42.02-83.53-46.4-108.01-4.35-24.34-3.43-37.93-3.42-38.07l-2.67-.2c-.04.56-.96,14.02,3.46,38.74,4.43,24.74,16.15,63.73,46.82,109.04,17.29,25.54,39.46,51.66,65.88,77.64,30.38,29.86,67.47,60.59,110.24,91.34,46.7,33.56,102.04,68.49,164.48,103.81,61.56,34.81,132.94,71.59,212.14,109.38v-2.97Z"/>
        <path class="st12" d="M2920.11,590.08c-39.59-19.11-76.76-37.59-111.93-55.63-77.44-39.74-146.95-78.42-206.58-114.95-57.54-35.25-108.54-70.13-151.58-103.64-39.38-30.67-73.52-61.31-101.46-91.06-24.26-25.85-44.62-51.83-60.5-77.23-28.07-44.93-38.79-83.55-42.84-108.03-4.02-24.39-3.17-37.96-3.16-38.09l-2.68-.18c-.04.56-.89,13.98,3.19,38.71,4.09,24.73,14.91,63.71,43.21,109.02,15.97,25.55,36.44,51.67,60.82,77.64,28.04,29.86,62.28,60.59,101.77,91.35,43.12,33.58,94.21,68.51,151.84,103.81,59.69,36.56,129.25,75.27,206.75,115.05,35.53,18.23,73.1,36.9,113.15,56.22v-2.98Z"/>
        <path class="st9" d="M2920.11,658.7c-90.19-44.87-167.69-85.52-236.84-124.23-71-39.75-134.71-78.42-189.35-114.95-52.75-35.25-99.49-70.12-138.95-103.63-36.09-30.67-67.38-61.31-93-91.06-22.24-25.84-40.9-51.83-55.45-77.22-20.37-35.57-33.96-72.94-39.28-108.06-3.7-24.43-2.91-37.98-2.9-38.12l-2.68-.17c-.04.56-.82,13.94,2.92,38.69,5.37,35.45,19.07,73.13,39.6,108.99,14.64,25.55,33.4,51.67,55.75,77.64,25.71,29.86,57.1,60.6,93.29,91.35,39.53,33.58,86.36,68.51,139.2,103.82,54.7,36.56,118.47,75.27,189.53,115.06,69.5,38.9,147.41,79.76,238.15,124.89v-3Z"/>
        <path class="st31" d="M2920.11,737.01c-54.52-28.58-101.35-53.62-145.06-77.53-82.57-45.17-153.45-86.05-216.68-124.98-64.52-39.74-122.44-78.41-172.13-114.94-47.96-35.26-90.45-70.13-126.3-103.63-76.17-71.2-115.43-130.81-134.96-168.28-18.79-36.09-30.8-72.45-35.72-108.09-3.36-24.47-2.64-38.01-2.63-38.14l-2.68-.16c-.03.56-.75,13.9,2.65,38.67,4.96,35.94,17.07,72.61,36,108.97,19.62,37.65,59.06,97.54,135.5,169,35.93,33.57,78.5,68.51,126.55,103.83,49.75,36.57,107.73,75.29,172.31,115.06,63.27,38.96,134.19,79.86,216.8,125.05,44.06,24.1,91.29,49.35,146.35,78.21v-3.03Z"/>
        <path class="st26" d="M2920.11,829.57c-21.33-12.13-42.58-24.24-63.63-36.29-94.45-54.08-164.77-95.34-228-133.76-74.37-45.2-138.16-86.08-195.01-124.98-58.09-39.75-110.21-78.42-154.91-114.93-43.16-35.26-81.4-70.12-113.66-103.62-68.55-71.2-103.88-130.81-121.46-168.28-16.91-36.09-27.73-72.47-32.16-108.12-3.03-24.51-2.38-38.03-2.37-38.17l-2.68-.14c0,.14-.68,13.87,2.39,38.64,4.46,35.94,15.36,72.59,32.39,108.93,17.66,37.65,53.15,97.54,121.95,169,32.34,33.58,70.66,68.51,113.9,103.84,44.76,36.56,96.94,75.27,155.09,115.07,56.89,38.92,120.72,79.83,195.13,125.06,63.25,38.44,133.59,79.71,228.07,133.8,21.49,12.31,43.18,24.66,64.97,37.05v-3.09Z"/>
        <path class="st22" d="M2920.11,944.48c-46.61-30.24-93.06-59.95-138.87-89.23-32.54-20.79-64.81-41.42-96.67-61.94-120.82-77.83-259.97-169.44-376-258.74-51.62-39.74-97.95-78.41-137.69-114.93-38.35-35.25-72.34-70.11-101.03-103.61-60.93-71.2-92.34-130.81-107.96-168.28-36.78-88.36-30.77-145.7-30.71-146.26l-2.66-.31c-.07.58-6.18,58.54,30.9,147.6,22.51,53.99,59.99,112.43,108.4,169,28.75,33.59,62.82,68.52,101.25,103.84,39.8,36.57,86.18,75.29,137.87,115.08,116.1,89.36,255.32,181,376.18,258.86,31.86,20.53,64.13,41.15,96.68,61.95,46.29,29.58,93.23,59.6,140.32,90.17v-3.2Z"/>
        <path class="st36" d="M2920.11,1099.69c-7.1-5.77-14.26-11.56-21.61-17.44-99.48-79.58-202.09-154.53-301.33-227.01-28.45-20.78-56.66-41.39-84.5-61.88-105.72-77.84-227.49-169.44-328.99-258.73-87.89-77.33-158.16-150.86-208.86-218.53-42.2-56.35-74.87-114.55-94.48-168.29-32.48-89.17-26.94-145.77-26.88-146.33l-2.67-.28c-.06.57-5.69,57.72,27.02,147.53,19.7,53.99,52.49,112.42,94.85,168.98,50.81,67.82,121.21,141.48,209.24,218.93,101.58,89.35,223.4,181,329.17,258.87,27.84,20.5,56.06,41.1,84.51,61.89,99.21,72.46,201.8,147.39,301.23,226.94,7.92,6.34,15.66,12.59,23.29,18.79v-3.45Z"/>
        <path class="st6" d="M2920.11,1355.44c-27.61-38.86-59.69-78.58-97.31-120.48-42.68-47.52-92.17-97.45-151.3-152.65-85.1-79.43-173.22-154.52-258.43-227.14-24.35-20.75-48.48-41.31-72.28-61.75-90.61-77.82-194.96-169.42-281.98-258.72-75.33-77.33-135.57-150.85-179.02-218.52-36.17-56.36-64.18-114.56-80.99-168.31-28.08-89.92-23.1-145.85-23.05-146.4l-2.67-.26c-.06.56-5.1,56.97,23.16,147.46,16.88,53.98,44.99,112.41,81.29,168.96,43.55,67.82,103.9,141.48,179.36,218.94,87.09,89.37,191.5,181.02,282.15,258.88,23.8,20.44,47.94,41.01,72.29,61.76,85.19,72.6,173.29,147.67,258.35,227.06,59.07,55.15,108.51,105.03,151.14,152.48,38.56,42.95,71.25,83.6,99.3,123.37v-4.69Z"/>
        <path class="st4" d="M1782.38,317.54c36.29,67.81,86.57,141.47,149.46,218.94,57.72,71.07,128.03,148.5,235.13,258.89,19.76,20.37,39.82,40.88,60.06,61.59,71.16,72.77,144.73,148.02,215.46,227.23,49.22,55.13,90.41,105.01,125.94,152.48,41,54.79,74.14,105.87,101.29,156.16,56.51,104.69,86.94,212.07,88.37,311.12h2.68c-1.43-99.49-31.97-207.31-88.69-312.39-27.22-50.4-60.43-101.59-101.51-156.49-35.58-47.53-76.82-97.46-126.09-152.66-70.76-79.26-144.36-154.53-215.54-227.32-20.24-20.7-40.3-41.21-60.06-61.58-107.04-110.33-177.32-187.7-234.98-258.71-62.78-77.34-112.97-150.86-149.18-218.51-30.58-57.17-53.29-113.81-67.5-168.35-23.57-90.6-19.26-145.93-19.21-146.48l-2.67-.23c-.05.55-4.41,56.29,19.29,147.38,14.26,54.74,37.05,111.58,67.73,168.93Z"/>
        <path class="st3" d="M1687.24,317.44c29.03,67.81,69.26,141.47,119.57,218.93,59.85,92.12,135.35,189.18,215.29,291.94,63.45,81.56,129.05,165.91,193.24,255.76,83.65,117.14,141.42,215.22,181.79,308.65,45.88,106.25,69.61,210.9,70.71,311.22h2.68c-1.1-100.69-24.91-205.7-70.93-312.29-40.46-93.61-98.31-191.84-182.07-309.14-64.22-89.9-129.84-174.26-193.3-255.85-79.9-102.71-155.37-199.74-215.15-291.76-50.22-77.33-90.38-150.86-119.35-218.53-24.47-57.19-42.64-113.84-54.01-168.39-18.98-91.19-15.41-146.02-15.38-146.56l-2.68-.19c-.04.55-3.64,55.71,15.43,147.3,11.41,54.72,29.63,111.55,54.17,168.9Z"/>
        <path class="st11" d="M1681.77,536.23c44.51,91.34,101.37,188.86,161.58,292.11,47.69,81.78,97,166.36,144.81,255.59,62.74,117.14,106.07,215.22,136.36,308.67,34.42,106.28,52.23,210.97,53.05,311.34h2.68c-.83-100.65-18.68-205.62-53.18-312.17-30.34-93.61-73.73-191.83-136.55-309.11-47.83-89.28-97.16-173.87-144.86-255.68-60.18-103.2-117.02-200.68-161.48-291.93-89.1-182.95-119.72-320.99-130.04-386.99-14.31-91.68-11.57-146.11-11.54-146.65l-2.68-.15c-.03.54-2.8,55.23,11.57,147.21,10.35,66.15,41.03,204.49,130.28,387.75Z"/>
        <path class="st1" d="M1556.75,536.06c29.44,90.61,67.5,188.57,107.8,292.28,31.86,81.99,64.8,166.78,96.46,255.42,83.89,234.98,125.16,437.92,126.25,620.2h2.68c-1.09-182.59-42.42-385.83-126.41-621.1-31.67-88.68-64.62-173.48-96.49-255.49-40.28-103.67-78.33-201.6-107.74-292.13-59.41-182.99-79.83-321.07-86.72-387.09-9.58-92.05-7.71-146.21-7.69-146.74l-2.68-.1c-.02.54-1.9,54.86,7.71,147.12,6.89,66.13,27.34,204.42,86.83,387.64Z"/>
        <path class="st8" d="M1482.39,809.15c53.31,272.66,113.65,581.43,114.63,894.79h2.68c-.98-313.62-61.35-622.53-114.68-895.31-18.97-97.03-36.89-188.68-50.63-273.21C1383.27,220.42,1387.13,3.52,1387.17,1.37l-2.68-.06c-.04,2.16-3.91,219.28,47.26,534.54,13.74,84.57,31.67,176.24,50.64,273.3Z"/>
        <rect class="st41" x="1306.77" y="1.34" width="2.68" height="1702.6"/>
        <path class="st2" d="M1019.21,1703.95c.98-313.37,61.32-622.14,114.64-894.8,18.98-97.05,36.9-188.72,50.64-273.29C1235.65,220.59,1231.79,3.47,1231.74,1.31l-2.68.06c.04,2.15,3.9,219.05-47.22,534.06-13.73,84.53-31.65,176.18-50.63,273.21-53.34,272.78-113.71,581.68-114.69,895.31h2.68Z"/>
        <path class="st32" d="M728.97,1703.95c1.09-182.27,42.36-385.22,126.25-620.2,31.66-88.64,64.6-173.42,96.46-255.41,40.3-103.71,78.36-201.67,107.8-292.28,59.49-183.23,79.94-321.52,86.83-387.64,9.6-92.26,7.73-146.58,7.71-147.12l-2.68.1c.02.54,1.89,54.69-7.69,146.74-6.88,66.02-27.3,204.1-86.72,387.09-29.41,90.54-67.46,188.47-107.75,292.14-31.86,82.01-64.81,166.8-96.49,255.48-83.99,235.27-125.32,438.51-126.41,621.1h2.68Z"/>
        <path class="st56" d="M438.66,1703.95c.83-100.37,18.63-205.06,53.05-311.34,30.29-93.45,73.62-191.53,136.36-308.67,47.81-89.24,97.12-173.81,144.81-255.59,60.21-103.25,117.07-200.77,161.58-292.11,89.25-183.26,119.94-321.6,130.28-387.75,14.36-91.99,11.59-146.67,11.57-147.21l-2.68.15c.03.54,2.78,54.97-11.54,146.65-10.32,66-40.94,204.04-130.04,386.99-44.46,91.25-101.3,188.73-161.48,291.93-47.7,81.81-97.03,166.4-144.86,255.68-62.82,117.29-106.2,215.51-136.54,309.11-34.51,106.55-52.36,211.52-53.18,312.17h2.68Z"/>
        <path class="st30" d="M148.39,1703.95c1.1-100.32,24.84-204.98,70.71-311.22,40.38-93.43,98.15-191.5,181.8-308.64,64.19-89.85,129.79-174.19,193.23-255.76,79.94-102.76,155.44-199.83,215.29-291.95,50.31-77.46,90.54-151.12,119.57-218.93,24.54-57.34,42.77-114.17,54.17-168.89,19.06-91.59,15.46-146.75,15.42-147.3l-2.68.19c.04.54,3.61,55.38-15.37,146.56-11.37,54.55-29.54,111.2-54.01,168.38-28.97,67.67-69.13,141.19-119.35,218.53-59.79,92.02-135.26,189.05-215.16,291.76-63.46,81.58-129.08,165.95-193.3,255.84-83.76,117.3-141.62,215.53-182.08,309.14-46.02,106.58-69.83,211.6-70.93,312.29h2.68Z"/>
        <path class="st17" d="M920.87,1.23l-2.67.23c.05.55,4.36,55.89-19.21,146.48-14.21,54.53-36.92,111.17-67.5,168.34-36.21,67.66-86.4,141.18-149.18,218.52-57.67,71.02-127.94,148.39-234.98,258.71-19.76,20.37-39.81,40.88-60.05,61.58-71.18,72.79-144.78,148.06-215.54,227.32-49.28,55.2-90.52,105.14-126.09,152.66-41.08,54.91-74.29,106.1-101.51,156.49-23.77,44.04-42.88,88.56-57.24,132.74v8.72c14.55-46.62,34.48-93.67,59.6-140.19,27.16-50.28,60.29-101.36,101.3-156.16,35.52-47.46,76.72-97.33,125.94-152.48,70.73-79.22,144.3-154.46,215.46-227.23,20.24-20.7,40.3-41.22,60.06-61.58,107.09-110.38,177.41-187.81,235.13-258.89,62.89-77.47,113.18-151.13,149.46-218.94,30.68-57.35,53.47-114.19,67.73-168.93,23.7-91.09,19.34-146.83,19.29-147.38Z"/>
        <path class="st55" d="M843.15,1.21l-2.67.26c.05.56,5.03,56.49-23.05,146.4-16.81,53.75-44.81,111.95-80.99,168.31-43.45,67.67-103.69,141.19-179.02,218.52-87.02,89.29-191.37,180.89-281.98,258.72-23.77,20.42-47.89,40.97-72.21,61.7-85.24,72.63-173.37,147.74-258.5,227.2-20.42,19.06-39.61,37.45-57.84,55.37v3.75c18.77-18.48,38.58-37.47,59.67-57.16,85.08-79.41,173.2-154.5,258.41-227.12,24.33-20.73,48.44-41.28,72.22-61.7,90.65-77.86,195.07-169.51,282.15-258.88,75.46-77.46,135.8-151.12,179.36-218.94,36.3-56.56,64.41-114.99,81.29-168.96,28.25-90.49,23.21-146.9,23.16-147.46Z"/>
        <path class="st52" d="M765.44,1.2l-2.67.28c.06.56,5.6,57.17-26.88,146.33-19.61,53.75-52.27,111.94-94.47,168.29-50.7,67.67-120.97,141.19-208.87,218.53-101.5,89.27-223.26,180.89-328.99,258.73-27.84,20.5-56.06,41.11-84.53,61.9-43.58,31.83-87.81,64.17-132.14,97.14v3.34c44.86-33.37,89.63-66.11,133.73-98.31,28.46-20.79,56.69-41.4,84.53-61.91,105.77-77.87,227.6-169.53,329.17-258.87,88.03-77.45,158.43-151.12,209.24-218.93,42.35-56.56,75.15-115,94.85-168.98C771.13,58.92,765.5,1.77,765.44,1.2Z"/>
        <path class="st23" d="M687.72,1.19l-2.66.31c.06.57,6.08,57.91-30.71,146.26-15.62,37.47-47.03,97.09-107.96,168.28-28.68,33.5-62.68,68.36-101.03,103.61-39.74,36.52-86.07,75.19-137.69,114.93-116.03,89.3-255.18,180.9-376,258.74-14.83,9.56-29.77,19.14-44.77,28.74v3.19c15.49-9.92,30.91-19.81,46.23-29.68,120.86-77.86,260.08-169.5,376.18-258.86,51.68-39.79,98.07-78.5,137.87-115.08,38.43-35.32,72.5-70.26,101.25-103.84,48.41-56.56,85.89-115,108.4-169C693.9,59.72,687.78,1.76,687.72,1.19Z"/>
        <path class="st53" d="M610.01,1.27l-2.68.14c0,.13.66,13.66-2.37,38.17-4.42,35.65-15.24,72.03-32.16,108.12-17.57,37.47-52.91,97.08-121.46,168.28-32.26,33.5-70.51,68.36-113.66,103.62-44.69,36.5-96.81,75.17-154.91,114.93-56.85,38.9-120.64,79.78-195.01,124.98-31.2,18.96-64.15,38.62-100.87,60.17v3.11c37.29-21.88,70.67-41.79,102.26-60.99,74.41-45.23,138.24-86.13,195.13-125.06,58.16-39.81,110.34-78.52,155.09-115.07,43.24-35.32,81.56-70.26,113.9-103.84,68.8-71.46,104.29-131.35,121.95-169,17.04-36.35,27.93-73,32.39-108.93,3.07-24.77,2.4-38.5,2.39-38.64Z"/>
        <path class="st50" d="M532.29,1.26l-2.68.16c0,.13.73,13.67-2.63,38.14-4.91,35.64-16.93,72.01-35.72,108.09-19.53,37.47-58.79,97.08-134.95,168.28-35.85,33.5-78.35,68.37-126.3,103.63-49.67,36.52-107.59,75.19-172.13,114.94-51.22,31.54-107.58,64.4-170.98,99.73v3.07c63.97-35.63,120.78-68.74,172.38-100.51,64.61-39.79,122.58-78.5,172.31-115.06,48.04-35.32,90.61-70.26,126.55-103.83,76.44-71.46,115.88-131.34,135.5-169,18.93-36.36,31.04-73.02,36-108.97,3.41-24.76,2.69-38.11,2.65-38.67Z"/>
        <path class="st27" d="M454.58,1.26l-2.68.17c0,.13.8,13.69-2.9,38.12-5.33,35.12-18.91,72.49-39.28,108.06-14.56,25.4-33.21,51.38-55.46,77.23-25.62,29.76-56.91,60.39-93,91.06-39.45,33.51-86.2,68.38-138.94,103.63-54.66,36.53-118.37,75.21-189.35,114.95-14.92,8.35-30.33,16.82-46.07,25.38v3.06c16.21-8.8,32.04-17.51,47.38-26.09,71.04-39.78,134.81-78.49,189.53-115.06,52.83-35.32,99.66-70.25,139.19-103.82,36.2-30.76,67.59-61.49,93.3-91.35,22.35-25.97,41.11-52.09,55.75-77.64,20.54-35.86,34.23-73.55,39.6-108.99,3.74-24.75,2.96-38.13,2.92-38.69Z"/>
        <path class="st47" d="M376.86,1.25l-2.68.18c0,.13.87,13.71-3.16,38.09-4.05,24.49-14.77,63.11-42.84,108.04-15.88,25.39-36.23,51.37-60.5,77.23-27.95,29.76-62.09,60.39-101.46,91.06-43.04,33.52-94.04,68.38-151.59,103.64-38.6,23.65-81.39,48.2-127.74,73.35v3.05c46.88-25.41,90.15-50.22,129.14-74.11,57.63-35.31,108.71-70.24,151.83-103.81,39.49-30.76,73.73-61.49,101.77-91.35,24.39-25.98,44.85-52.1,60.82-77.64,28.31-45.3,39.12-84.29,43.21-109.02,4.08-24.73,3.23-38.15,3.19-38.71Z"/>
        <path class="st48" d="M299.14,1.24l-2.67.2c0,.13.93,13.73-3.42,38.07-4.39,24.48-15.99,63.08-46.4,108.01-17.2,25.4-39.25,51.38-65.54,77.23-30.28,29.76-67.27,60.4-109.93,91.07-46.62,33.51-101.88,68.38-164.23,103.65-6.55,3.7-13.28,7.44-20.05,11.19v3.07c7.23-4,14.39-7.98,21.37-11.92,62.44-35.32,117.77-70.24,164.47-103.81,42.77-30.75,79.86-61.48,110.24-91.34,26.42-25.97,48.58-52.09,65.88-77.64,30.67-45.32,42.39-84.31,46.82-109.04,4.42-24.72,3.5-38.18,3.46-38.74Z"/>
        <path class="st43" d="M221.43,1.24l-2.67.21c.01.13,1,13.75-3.68,38.04-4.72,24.47-17.22,63.07-49.96,107.99-18.52,25.4-42.27,51.38-70.59,77.23-32.6,29.76-72.44,60.4-118.39,91.08-27.09,18.08-56.98,36.57-89.23,55.3v3.1c32.81-19.02,63.2-37.8,90.72-56.16,46.07-30.76,86.01-61.48,118.71-91.33,28.45-25.97,52.32-52.09,70.95-77.63,33.04-45.32,45.66-84.33,50.43-109.06,4.76-24.7,3.77-38.2,3.72-38.76Z"/>
        <path class="st10" d="M143.71,1.23l-2.67.22c.01.14,1.06,13.78-3.94,38.02-5.06,24.47-18.45,63.06-53.53,107.97-19.85,25.4-45.29,51.38-75.63,77.24-33.53,28.56-74.27,57.95-121.03,87.4v3.18c47.48-29.82,88.8-59.59,122.77-88.53,30.48-25.97,56.05-52.09,76.01-77.63,35.4-45.32,48.92-84.33,54.04-109.08,5.09-24.67,4.04-38.22,3.99-38.79Z"/>
        <path class="st46" d="M65.99,1.22l-2.67.24c.01.13,1.12,13.81-4.21,38-4.42,20.03-17.71,60.68-57.09,107.96-21.18,25.4-48.32,51.39-80.68,77.24-10.78,8.61-22.32,17.29-34.44,26.02v3.3c12.74-9.13,24.85-18.22,36.12-27.22,32.5-25.97,59.78-52.08,81.07-77.62C43.83,101.42,57.26,60.3,61.73,40.03c5.42-24.65,4.31-38.24,4.26-38.81Z"/>
      </g>
    </g>
  </g>
</svg>