<?xml version="1.0" encoding="UTF-8"?>
<svg xmlns="http://www.w3.org/2000/svg" version="1.1" xmlns:xlink="http://www.w3.org/1999/xlink" viewBox="0 0 750 500">
  <!-- Generator: Adobe Illustrator 30.0.0, SVG Export Plug-In . SVG Version: 2.1.1 Build 123)  -->
  <defs>
    <style>
      .st0 {
        stroke: #000100;
        stroke-linecap: round;
        stroke-linejoin: round;
        stroke-width: .5px;
      }

      .st0, .st1 {
        fill: none;
      }

      .st2 {
        fill: #fff;
      }

      .st3 {
        fill: #545454;
      }

      .st4 {
        clip-path: url(#clippath);
      }
    </style>
    <clipPath id="clippath">
      <rect class="st1" width="750" height="500"/>
    </clipPath>
  </defs>
  <g id="BACKGROUND">
    <rect class="st2" width="750" height="500"/>
  </g>
  <g id="OBJECTS">
    <g class="st4">
      <g>
        <g>
          <line class="st0" x1="32.98" y1="-101.08" x2="32.98" y2="599.3"/>
          <line class="st0" x1="67.14" y1="-101.08" x2="67.14" y2="599.3"/>
          <line class="st0" x1="101.31" y1="-101.08" x2="101.31" y2="599.3"/>
          <line class="st0" x1="135.47" y1="-101.08" x2="135.47" y2="599.3"/>
          <line class="st0" x1="169.63" y1="-101.08" x2="169.63" y2="599.3"/>
          <line class="st0" x1="203.79" y1="-101.08" x2="203.79" y2="599.3"/>
          <line class="st0" x1="237.96" y1="-101.08" x2="237.96" y2="599.3"/>
          <line class="st0" x1="272.12" y1="-101.08" x2="272.12" y2="599.3"/>
          <line class="st0" x1="306.28" y1="-101.08" x2="306.28" y2="599.3"/>
          <line class="st0" x1="340.44" y1="-101.08" x2="340.44" y2="599.3"/>
          <line class="st0" x1="374.61" y1="-101.08" x2="374.61" y2="599.3"/>
          <line class="st0" x1="408.77" y1="-101.08" x2="408.77" y2="599.3"/>
          <line class="st0" x1="442.93" y1="-101.08" x2="442.93" y2="599.3"/>
          <line class="st0" x1="477.09" y1="-101.08" x2="477.09" y2="599.3"/>
          <line class="st0" x1="511.26" y1="-101.08" x2="511.26" y2="599.3"/>
          <line class="st0" x1="545.42" y1="-101.08" x2="545.42" y2="599.3"/>
          <line class="st0" x1="579.58" y1="-101.08" x2="579.58" y2="599.3"/>
          <line class="st0" x1="613.75" y1="-101.08" x2="613.75" y2="599.3"/>
          <line class="st0" x1="647.91" y1="-101.08" x2="647.91" y2="599.3"/>
          <line class="st0" x1="682.07" y1="-101.08" x2="682.07" y2="599.3"/>
          <line class="st0" x1="716.23" y1="-101.08" x2="716.23" y2="599.3"/>
        </g>
        <g>
          <line class="st0" x1="161.08" y1="1102.27" x2="1220.49" y2="490.62"/>
          <line class="st0" x1="144" y1="1072.69" x2="1203.41" y2="461.03"/>
          <line class="st0" x1="126.91" y1="1043.1" x2="1186.33" y2="431.45"/>
          <line class="st0" x1="109.83" y1="1013.52" x2="1169.25" y2="401.86"/>
          <line class="st0" x1="92.75" y1="983.93" x2="1152.17" y2="372.28"/>
          <line class="st0" x1="75.67" y1="954.34" x2="1135.09" y2="342.69"/>
          <line class="st0" x1="58.59" y1="924.76" x2="1118.01" y2="313.1"/>
          <line class="st0" x1="41.51" y1="895.17" x2="1100.93" y2="283.52"/>
          <line class="st0" x1="24.43" y1="865.59" x2="1083.84" y2="253.93"/>
          <line class="st0" x1="7.35" y1="836" x2="1066.76" y2="224.35"/>
          <line class="st0" x1="-9.74" y1="806.42" x2="1049.68" y2="194.76"/>
          <line class="st0" x1="-26.82" y1="776.83" x2="1032.6" y2="165.18"/>
          <line class="st0" x1="-43.9" y1="747.25" x2="1015.52" y2="135.59"/>
          <line class="st0" x1="-60.98" y1="717.66" x2="998.44" y2="106"/>
          <line class="st0" x1="-78.06" y1="688.07" x2="981.36" y2="76.42"/>
          <line class="st0" x1="-95.14" y1="658.49" x2="964.28" y2="46.83"/>
          <line class="st0" x1="-112.22" y1="628.9" x2="947.19" y2="17.25"/>
          <line class="st0" x1="-129.3" y1="599.32" x2="930.11" y2="-12.34"/>
          <line class="st0" x1="-146.39" y1="569.73" x2="913.03" y2="-41.92"/>
          <line class="st0" x1="-163.47" y1="540.15" x2="895.95" y2="-71.51"/>
          <line class="st0" x1="-180.55" y1="510.56" x2="878.87" y2="-101.1"/>
          <line class="st0" x1="-197.63" y1="480.97" x2="861.79" y2="-130.68"/>
          <line class="st0" x1="-214.71" y1="451.39" x2="844.71" y2="-160.27"/>
          <line class="st0" x1="-231.79" y1="421.8" x2="827.63" y2="-189.85"/>
          <line class="st0" x1="-248.87" y1="392.22" x2="810.54" y2="-219.44"/>
          <line class="st0" x1="-265.95" y1="362.63" x2="793.46" y2="-249.02"/>
          <line class="st0" x1="-283.04" y1="333.05" x2="776.38" y2="-278.61"/>
          <line class="st0" x1="-300.12" y1="303.46" x2="759.3" y2="-308.2"/>
          <line class="st0" x1="-317.2" y1="273.87" x2="742.22" y2="-337.78"/>
          <line class="st0" x1="-334.28" y1="244.29" x2="725.14" y2="-367.37"/>
          <line class="st0" x1="-351.36" y1="214.7" x2="708.06" y2="-396.95"/>
          <line class="st0" x1="-368.44" y1="185.12" x2="690.98" y2="-426.54"/>
          <line class="st0" x1="-385.52" y1="155.53" x2="673.89" y2="-456.12"/>
          <line class="st0" x1="-402.6" y1="125.95" x2="656.81" y2="-485.71"/>
          <line class="st0" x1="-419.69" y1="96.36" x2="639.73" y2="-515.29"/>
          <line class="st0" x1="-436.77" y1="66.77" x2="622.65" y2="-544.88"/>
          <line class="st0" x1="-453.85" y1="37.19" x2="605.57" y2="-574.47"/>
          <line class="st0" x1="-470.93" y1="7.6" x2="588.49" y2="-604.05"/>
        </g>
        <g>
          <line class="st0" x1="1220.5" y1="7.6" x2="161.08" y2="-604.05"/>
          <line class="st0" x1="1203.41" y1="37.19" x2="144" y2="-574.47"/>
          <line class="st0" x1="1186.33" y1="66.77" x2="126.91" y2="-544.88"/>
          <line class="st0" x1="1169.25" y1="96.36" x2="109.83" y2="-515.29"/>
          <line class="st0" x1="1152.17" y1="125.95" x2="92.75" y2="-485.71"/>
          <line class="st0" x1="1135.09" y1="155.53" x2="75.67" y2="-456.12"/>
          <line class="st0" x1="1118.01" y1="185.12" x2="58.59" y2="-426.54"/>
          <line class="st0" x1="1100.93" y1="214.7" x2="41.51" y2="-396.95"/>
          <line class="st0" x1="1083.84" y1="244.29" x2="24.43" y2="-367.37"/>
          <line class="st0" x1="1066.76" y1="273.87" x2="7.35" y2="-337.78"/>
          <line class="st0" x1="1049.68" y1="303.46" x2="-9.74" y2="-308.19"/>
          <line class="st0" x1="1032.6" y1="333.05" x2="-26.82" y2="-278.61"/>
          <line class="st0" x1="1015.52" y1="362.63" x2="-43.9" y2="-249.02"/>
          <line class="st0" x1="998.44" y1="392.22" x2="-60.98" y2="-219.44"/>
          <line class="st0" x1="981.36" y1="421.8" x2="-78.06" y2="-189.85"/>
          <line class="st0" x1="964.28" y1="451.39" x2="-95.14" y2="-160.27"/>
          <line class="st0" x1="947.19" y1="480.97" x2="-112.22" y2="-130.68"/>
          <line class="st0" x1="930.11" y1="510.56" x2="-129.3" y2="-101.1"/>
          <line class="st0" x1="913.03" y1="540.15" x2="-146.39" y2="-71.51"/>
          <line class="st0" x1="895.95" y1="569.73" x2="-163.47" y2="-41.92"/>
          <line class="st0" x1="878.87" y1="599.32" x2="-180.55" y2="-12.34"/>
          <line class="st0" x1="861.79" y1="628.9" x2="-197.63" y2="17.25"/>
          <line class="st0" x1="844.71" y1="658.49" x2="-214.71" y2="46.83"/>
          <line class="st0" x1="827.63" y1="688.07" x2="-231.79" y2="76.42"/>
          <line class="st0" x1="810.54" y1="717.66" x2="-248.87" y2="106"/>
          <line class="st0" x1="793.46" y1="747.24" x2="-265.95" y2="135.59"/>
          <line class="st0" x1="776.38" y1="776.83" x2="-283.04" y2="165.18"/>
          <line class="st0" x1="759.3" y1="806.42" x2="-300.12" y2="194.76"/>
          <line class="st0" x1="742.22" y1="836" x2="-317.2" y2="224.35"/>
          <line class="st0" x1="725.14" y1="865.59" x2="-334.28" y2="253.93"/>
          <line class="st0" x1="708.06" y1="895.17" x2="-351.36" y2="283.52"/>
          <line class="st0" x1="690.98" y1="924.76" x2="-368.44" y2="313.1"/>
          <line class="st0" x1="673.89" y1="954.34" x2="-385.52" y2="342.69"/>
          <line class="st0" x1="656.81" y1="983.93" x2="-402.61" y2="372.28"/>
          <line class="st0" x1="639.73" y1="1013.52" x2="-419.69" y2="401.86"/>
          <line class="st0" x1="622.65" y1="1043.1" x2="-436.77" y2="431.45"/>
          <line class="st0" x1="605.57" y1="1072.69" x2="-453.85" y2="461.03"/>
          <line class="st0" x1="588.49" y1="1102.27" x2="-470.93" y2="490.62"/>
        </g>
      </g>
      <g>
        <g>
          <path class="st3" d="M1.52,12.56c0,1.49-1.21,2.7-2.7,2.7s-2.7-1.21-2.7-2.7,1.21-2.7,2.7-2.7,2.7,1.21,2.7,2.7Z"/>
          <circle class="st3" cx="-1.18" cy="52.01" r="2.7"/>
          <circle class="st3" cx="-1.18" cy="91.47" r="2.7"/>
          <circle class="st3" cx="-1.18" cy="130.92" r="2.7"/>
          <circle class="st3" cx="-1.18" cy="170.38" r="2.7"/>
          <path class="st3" d="M1.52,209.83c0,1.49-1.21,2.7-2.7,2.7s-2.7-1.21-2.7-2.7,1.21-2.7,2.7-2.7,2.7,1.21,2.7,2.7Z"/>
          <path class="st3" d="M1.52,249.29c0,1.49-1.21,2.7-2.7,2.7s-2.7-1.21-2.7-2.7,1.21-2.7,2.7-2.7,2.7,1.21,2.7,2.7Z"/>
          <path class="st3" d="M1.52,288.74c0,1.49-1.21,2.7-2.7,2.7s-2.7-1.21-2.7-2.7,1.21-2.7,2.7-2.7,2.7,1.21,2.7,2.7Z"/>
          <path class="st3" d="M1.52,328.2c0,1.49-1.21,2.7-2.7,2.7s-2.7-1.21-2.7-2.7,1.21-2.7,2.7-2.7,2.7,1.21,2.7,2.7Z"/>
          <path class="st3" d="M1.52,367.65c0,1.49-1.21,2.7-2.7,2.7s-2.7-1.21-2.7-2.7,1.21-2.7,2.7-2.7,2.7,1.21,2.7,2.7Z"/>
          <path class="st3" d="M1.52,407.11c0,1.49-1.21,2.7-2.7,2.7s-2.7-1.21-2.7-2.7,1.21-2.7,2.7-2.7,2.7,1.21,2.7,2.7Z"/>
          <path class="st3" d="M1.52,446.56c0,1.49-1.21,2.7-2.7,2.7s-2.7-1.21-2.7-2.7,1.21-2.7,2.7-2.7,2.7,1.21,2.7,2.7Z"/>
          <path class="st3" d="M1.52,486.01c0,1.49-1.21,2.7-2.7,2.7s-2.7-1.21-2.7-2.7,1.21-2.7,2.7-2.7,2.7,1.21,2.7,2.7Z"/>
        </g>
        <g>
          <circle class="st3" cx="32.98" cy="32.26" r="2.7"/>
          <circle class="st3" cx="32.98" cy="71.72" r="2.7"/>
          <circle class="st3" cx="32.98" cy="111.17" r="2.7"/>
          <circle class="st3" cx="32.98" cy="150.63" r="2.7"/>
          <circle class="st3" cx="32.98" cy="190.08" r="2.7"/>
          <circle class="st3" cx="32.98" cy="229.54" r="2.7"/>
          <circle class="st3" cx="32.98" cy="268.99" r="2.7"/>
          <circle class="st3" cx="32.98" cy="308.44" r="2.7"/>
          <circle class="st3" cx="32.98" cy="347.9" r="2.7"/>
          <circle class="st3" cx="32.98" cy="387.35" r="2.7"/>
          <circle class="st3" cx="32.98" cy="426.81" r="2.7"/>
          <circle class="st3" cx="32.98" cy="466.26" r="2.7"/>
        </g>
        <g>
          <path class="st3" d="M69.84,12.56c0,1.49-1.21,2.7-2.7,2.7s-2.7-1.21-2.7-2.7,1.21-2.7,2.7-2.7,2.7,1.21,2.7,2.7Z"/>
          <circle class="st3" cx="67.14" cy="52.01" r="2.7"/>
          <circle class="st3" cx="67.14" cy="91.47" r="2.7"/>
          <circle class="st3" cx="67.14" cy="130.92" r="2.7"/>
          <circle class="st3" cx="67.14" cy="170.38" r="2.7"/>
          <path class="st3" d="M69.84,209.83c0,1.49-1.21,2.7-2.7,2.7s-2.7-1.21-2.7-2.7,1.21-2.7,2.7-2.7,2.7,1.21,2.7,2.7Z"/>
          <path class="st3" d="M69.84,249.29c0,1.49-1.21,2.7-2.7,2.7s-2.7-1.21-2.7-2.7,1.21-2.7,2.7-2.7,2.7,1.21,2.7,2.7Z"/>
          <path class="st3" d="M69.84,288.74c0,1.49-1.21,2.7-2.7,2.7s-2.7-1.21-2.7-2.7,1.21-2.7,2.7-2.7,2.7,1.21,2.7,2.7Z"/>
          <path class="st3" d="M69.84,328.2c0,1.49-1.21,2.7-2.7,2.7s-2.7-1.21-2.7-2.7,1.21-2.7,2.7-2.7,2.7,1.21,2.7,2.7Z"/>
          <path class="st3" d="M69.84,367.65c0,1.49-1.21,2.7-2.7,2.7s-2.7-1.21-2.7-2.7,1.21-2.7,2.7-2.7,2.7,1.21,2.7,2.7Z"/>
          <path class="st3" d="M69.84,407.11c0,1.49-1.21,2.7-2.7,2.7s-2.7-1.21-2.7-2.7,1.21-2.7,2.7-2.7,2.7,1.21,2.7,2.7Z"/>
          <path class="st3" d="M69.84,446.56c0,1.49-1.21,2.7-2.7,2.7s-2.7-1.21-2.7-2.7,1.21-2.7,2.7-2.7,2.7,1.21,2.7,2.7Z"/>
          <path class="st3" d="M69.84,486.01c0,1.49-1.21,2.7-2.7,2.7s-2.7-1.21-2.7-2.7,1.21-2.7,2.7-2.7,2.7,1.21,2.7,2.7Z"/>
        </g>
        <g>
          <path class="st3" d="M104,32.26c0,1.49-1.21,2.7-2.7,2.7s-2.7-1.21-2.7-2.7,1.21-2.7,2.7-2.7,2.7,1.21,2.7,2.7Z"/>
          <path class="st3" d="M104,71.72c0,1.49-1.21,2.7-2.7,2.7s-2.7-1.21-2.7-2.7,1.21-2.7,2.7-2.7,2.7,1.21,2.7,2.7Z"/>
          <path class="st3" d="M104,111.17c0,1.49-1.21,2.7-2.7,2.7s-2.7-1.21-2.7-2.7,1.21-2.7,2.7-2.7,2.7,1.21,2.7,2.7Z"/>
          <path class="st3" d="M104,150.63c0,1.49-1.21,2.7-2.7,2.7s-2.7-1.21-2.7-2.7,1.21-2.7,2.7-2.7,2.7,1.21,2.7,2.7Z"/>
          <path class="st3" d="M104,190.08c0,1.49-1.21,2.7-2.7,2.7s-2.7-1.21-2.7-2.7,1.21-2.7,2.7-2.7,2.7,1.21,2.7,2.7Z"/>
          <path class="st3" d="M104,229.54c0,1.49-1.21,2.7-2.7,2.7s-2.7-1.21-2.7-2.7,1.21-2.7,2.7-2.7,2.7,1.21,2.7,2.7Z"/>
          <path class="st3" d="M104,268.99c0,1.49-1.21,2.7-2.7,2.7s-2.7-1.21-2.7-2.7,1.21-2.7,2.7-2.7,2.7,1.21,2.7,2.7Z"/>
          <path class="st3" d="M104,308.44c0,1.49-1.21,2.7-2.7,2.7s-2.7-1.21-2.7-2.7,1.21-2.7,2.7-2.7,2.7,1.21,2.7,2.7Z"/>
          <path class="st3" d="M104,347.9c0,1.49-1.21,2.7-2.7,2.7s-2.7-1.21-2.7-2.7,1.21-2.7,2.7-2.7,2.7,1.21,2.7,2.7Z"/>
          <path class="st3" d="M104,387.35c0,1.49-1.21,2.7-2.7,2.7s-2.7-1.21-2.7-2.7,1.21-2.7,2.7-2.7,2.7,1.21,2.7,2.7Z"/>
          <path class="st3" d="M104,426.81c0,1.49-1.21,2.7-2.7,2.7s-2.7-1.21-2.7-2.7,1.21-2.7,2.7-2.7,2.7,1.21,2.7,2.7Z"/>
          <path class="st3" d="M104,466.26c0,1.49-1.21,2.7-2.7,2.7s-2.7-1.21-2.7-2.7,1.21-2.7,2.7-2.7,2.7,1.21,2.7,2.7Z"/>
        </g>
        <g>
          <path class="st3" d="M138.17,12.56c0,1.49-1.21,2.7-2.7,2.7s-2.7-1.21-2.7-2.7,1.21-2.7,2.7-2.7,2.7,1.21,2.7,2.7Z"/>
          <circle class="st3" cx="135.47" cy="52.01" r="2.7"/>
          <circle class="st3" cx="135.47" cy="91.47" r="2.7"/>
          <circle class="st3" cx="135.47" cy="130.92" r="2.7"/>
          <circle class="st3" cx="135.47" cy="170.38" r="2.7"/>
          <path class="st3" d="M138.17,209.83c0,1.49-1.21,2.7-2.7,2.7s-2.7-1.21-2.7-2.7,1.21-2.7,2.7-2.7,2.7,1.21,2.7,2.7Z"/>
          <path class="st3" d="M138.17,249.29c0,1.49-1.21,2.7-2.7,2.7s-2.7-1.21-2.7-2.7,1.21-2.7,2.7-2.7,2.7,1.21,2.7,2.7Z"/>
          <path class="st3" d="M138.17,288.74c0,1.49-1.21,2.7-2.7,2.7s-2.7-1.21-2.7-2.7,1.21-2.7,2.7-2.7,2.7,1.21,2.7,2.7Z"/>
          <path class="st3" d="M138.17,328.2c0,1.49-1.21,2.7-2.7,2.7s-2.7-1.21-2.7-2.7,1.21-2.7,2.7-2.7,2.7,1.21,2.7,2.7Z"/>
          <path class="st3" d="M138.17,367.65c0,1.49-1.21,2.7-2.7,2.7s-2.7-1.21-2.7-2.7,1.21-2.7,2.7-2.7,2.7,1.21,2.7,2.7Z"/>
          <path class="st3" d="M138.17,407.11c0,1.49-1.21,2.7-2.7,2.7s-2.7-1.21-2.7-2.7,1.21-2.7,2.7-2.7,2.7,1.21,2.7,2.7Z"/>
          <path class="st3" d="M138.17,446.56c0,1.49-1.21,2.7-2.7,2.7s-2.7-1.21-2.7-2.7,1.21-2.7,2.7-2.7,2.7,1.21,2.7,2.7Z"/>
          <path class="st3" d="M138.17,486.01c0,1.49-1.21,2.7-2.7,2.7s-2.7-1.21-2.7-2.7,1.21-2.7,2.7-2.7,2.7,1.21,2.7,2.7Z"/>
        </g>
        <g>
          <circle class="st3" cx="169.63" cy="32.26" r="2.7"/>
          <circle class="st3" cx="169.63" cy="71.72" r="2.7"/>
          <circle class="st3" cx="169.63" cy="111.17" r="2.7"/>
          <circle class="st3" cx="169.63" cy="150.63" r="2.7"/>
          <circle class="st3" cx="169.63" cy="190.08" r="2.7"/>
          <circle class="st3" cx="169.63" cy="229.54" r="2.7"/>
          <circle class="st3" cx="169.63" cy="268.99" r="2.7"/>
          <circle class="st3" cx="169.63" cy="308.44" r="2.7"/>
          <circle class="st3" cx="169.63" cy="347.9" r="2.7"/>
          <circle class="st3" cx="169.63" cy="387.35" r="2.7"/>
          <circle class="st3" cx="169.63" cy="426.81" r="2.7"/>
          <circle class="st3" cx="169.63" cy="466.26" r="2.7"/>
        </g>
        <g>
          <path class="st3" d="M206.49,12.56c0,1.49-1.21,2.7-2.7,2.7s-2.7-1.21-2.7-2.7,1.21-2.7,2.7-2.7,2.7,1.21,2.7,2.7Z"/>
          <circle class="st3" cx="203.79" cy="52.01" r="2.7"/>
          <circle class="st3" cx="203.79" cy="91.47" r="2.7"/>
          <circle class="st3" cx="203.79" cy="130.92" r="2.7"/>
          <circle class="st3" cx="203.79" cy="170.38" r="2.7"/>
          <path class="st3" d="M206.49,209.83c0,1.49-1.21,2.7-2.7,2.7s-2.7-1.21-2.7-2.7,1.21-2.7,2.7-2.7,2.7,1.21,2.7,2.7Z"/>
          <path class="st3" d="M206.49,249.29c0,1.49-1.21,2.7-2.7,2.7s-2.7-1.21-2.7-2.7,1.21-2.7,2.7-2.7,2.7,1.21,2.7,2.7Z"/>
          <path class="st3" d="M206.49,288.74c0,1.49-1.21,2.7-2.7,2.7s-2.7-1.21-2.7-2.7,1.21-2.7,2.7-2.7,2.7,1.21,2.7,2.7Z"/>
          <path class="st3" d="M206.49,328.2c0,1.49-1.21,2.7-2.7,2.7s-2.7-1.21-2.7-2.7,1.21-2.7,2.7-2.7,2.7,1.21,2.7,2.7Z"/>
          <path class="st3" d="M206.49,367.65c0,1.49-1.21,2.7-2.7,2.7s-2.7-1.21-2.7-2.7,1.21-2.7,2.7-2.7,2.7,1.21,2.7,2.7Z"/>
          <path class="st3" d="M206.49,407.11c0,1.49-1.21,2.7-2.7,2.7s-2.7-1.21-2.7-2.7,1.21-2.7,2.7-2.7,2.7,1.21,2.7,2.7Z"/>
          <path class="st3" d="M206.49,446.56c0,1.49-1.21,2.7-2.7,2.7s-2.7-1.21-2.7-2.7,1.21-2.7,2.7-2.7,2.7,1.21,2.7,2.7Z"/>
          <path class="st3" d="M206.49,486.01c0,1.49-1.21,2.7-2.7,2.7s-2.7-1.21-2.7-2.7,1.21-2.7,2.7-2.7,2.7,1.21,2.7,2.7Z"/>
        </g>
        <g>
          <circle class="st3" cx="237.96" cy="32.26" r="2.7"/>
          <circle class="st3" cx="237.96" cy="71.72" r="2.7"/>
          <circle class="st3" cx="237.96" cy="111.17" r="2.7"/>
          <circle class="st3" cx="237.96" cy="150.63" r="2.7"/>
          <circle class="st3" cx="237.96" cy="190.08" r="2.7"/>
          <circle class="st3" cx="237.96" cy="229.54" r="2.7"/>
          <circle class="st3" cx="237.96" cy="268.99" r="2.7"/>
          <circle class="st3" cx="237.96" cy="308.44" r="2.7"/>
          <circle class="st3" cx="237.96" cy="347.9" r="2.7"/>
          <circle class="st3" cx="237.96" cy="387.35" r="2.7"/>
          <circle class="st3" cx="237.96" cy="426.81" r="2.7"/>
          <circle class="st3" cx="237.96" cy="466.26" r="2.7"/>
        </g>
        <g>
          <path class="st3" d="M274.82,12.56c0,1.49-1.21,2.7-2.7,2.7s-2.7-1.21-2.7-2.7,1.21-2.7,2.7-2.7,2.7,1.21,2.7,2.7Z"/>
          <circle class="st3" cx="272.12" cy="52.01" r="2.7"/>
          <circle class="st3" cx="272.12" cy="91.47" r="2.7"/>
          <circle class="st3" cx="272.12" cy="130.92" r="2.7"/>
          <circle class="st3" cx="272.12" cy="170.38" r="2.7"/>
          <path class="st3" d="M274.82,209.83c0,1.49-1.21,2.7-2.7,2.7s-2.7-1.21-2.7-2.7,1.21-2.7,2.7-2.7,2.7,1.21,2.7,2.7Z"/>
          <path class="st3" d="M274.82,249.29c0,1.49-1.21,2.7-2.7,2.7s-2.7-1.21-2.7-2.7,1.21-2.7,2.7-2.7,2.7,1.21,2.7,2.7Z"/>
          <path class="st3" d="M274.82,288.74c0,1.49-1.21,2.7-2.7,2.7s-2.7-1.21-2.7-2.7,1.21-2.7,2.7-2.7,2.7,1.21,2.7,2.7Z"/>
          <path class="st3" d="M274.82,328.2c0,1.49-1.21,2.7-2.7,2.7s-2.7-1.21-2.7-2.7,1.21-2.7,2.7-2.7,2.7,1.21,2.7,2.7Z"/>
          <path class="st3" d="M274.82,367.65c0,1.49-1.21,2.7-2.7,2.7s-2.7-1.21-2.7-2.7,1.21-2.7,2.7-2.7,2.7,1.21,2.7,2.7Z"/>
          <path class="st3" d="M274.82,407.11c0,1.49-1.21,2.7-2.7,2.7s-2.7-1.21-2.7-2.7,1.21-2.7,2.7-2.7,2.7,1.21,2.7,2.7Z"/>
          <path class="st3" d="M274.82,446.56c0,1.49-1.21,2.7-2.7,2.7s-2.7-1.21-2.7-2.7,1.21-2.7,2.7-2.7,2.7,1.21,2.7,2.7Z"/>
          <path class="st3" d="M274.82,486.01c0,1.49-1.21,2.7-2.7,2.7s-2.7-1.21-2.7-2.7,1.21-2.7,2.7-2.7,2.7,1.21,2.7,2.7Z"/>
        </g>
        <g>
          <circle class="st3" cx="306.28" cy="32.26" r="2.7"/>
          <circle class="st3" cx="306.28" cy="71.72" r="2.7"/>
          <circle class="st3" cx="306.28" cy="111.17" r="2.7"/>
          <circle class="st3" cx="306.28" cy="150.63" r="2.7"/>
          <circle class="st3" cx="306.28" cy="190.08" r="2.7"/>
          <circle class="st3" cx="306.28" cy="229.54" r="2.7"/>
          <circle class="st3" cx="306.28" cy="268.99" r="2.7"/>
          <circle class="st3" cx="306.28" cy="308.44" r="2.7"/>
          <circle class="st3" cx="306.28" cy="347.9" r="2.7"/>
          <circle class="st3" cx="306.28" cy="387.35" r="2.7"/>
          <circle class="st3" cx="306.28" cy="426.81" r="2.7"/>
          <circle class="st3" cx="306.28" cy="466.26" r="2.7"/>
        </g>
        <g>
          <path class="st3" d="M343.14,12.56c0,1.49-1.21,2.7-2.7,2.7s-2.7-1.21-2.7-2.7,1.21-2.7,2.7-2.7,2.7,1.21,2.7,2.7Z"/>
          <path class="st3" d="M343.14,52.01c0,1.49-1.21,2.7-2.7,2.7s-2.7-1.21-2.7-2.7,1.21-2.7,2.7-2.7,2.7,1.21,2.7,2.7Z"/>
          <path class="st3" d="M343.14,91.47c0,1.49-1.21,2.7-2.7,2.7s-2.7-1.21-2.7-2.7,1.21-2.7,2.7-2.7,2.7,1.21,2.7,2.7Z"/>
          <path class="st3" d="M343.14,130.92c0,1.49-1.21,2.7-2.7,2.7s-2.7-1.21-2.7-2.7,1.21-2.7,2.7-2.7,2.7,1.21,2.7,2.7Z"/>
          <path class="st3" d="M343.14,170.38c0,1.49-1.21,2.7-2.7,2.7s-2.7-1.21-2.7-2.7,1.21-2.7,2.7-2.7,2.7,1.21,2.7,2.7Z"/>
          <path class="st3" d="M343.14,209.83c0,1.49-1.21,2.7-2.7,2.7s-2.7-1.21-2.7-2.7,1.21-2.7,2.7-2.7,2.7,1.21,2.7,2.7Z"/>
          <path class="st3" d="M343.14,249.29c0,1.49-1.21,2.7-2.7,2.7s-2.7-1.21-2.7-2.7,1.21-2.7,2.7-2.7,2.7,1.21,2.7,2.7Z"/>
          <path class="st3" d="M343.14,288.74c0,1.49-1.21,2.7-2.7,2.7s-2.7-1.21-2.7-2.7,1.21-2.7,2.7-2.7,2.7,1.21,2.7,2.7Z"/>
          <path class="st3" d="M343.14,328.2c0,1.49-1.21,2.7-2.7,2.7s-2.7-1.21-2.7-2.7,1.21-2.7,2.7-2.7,2.7,1.21,2.7,2.7Z"/>
          <path class="st3" d="M343.14,367.65c0,1.49-1.21,2.7-2.7,2.7s-2.7-1.21-2.7-2.7,1.21-2.7,2.7-2.7,2.7,1.21,2.7,2.7Z"/>
          <path class="st3" d="M343.14,407.11c0,1.49-1.21,2.7-2.7,2.7s-2.7-1.21-2.7-2.7,1.21-2.7,2.7-2.7,2.7,1.21,2.7,2.7Z"/>
          <path class="st3" d="M343.14,446.56c0,1.49-1.21,2.7-2.7,2.7s-2.7-1.21-2.7-2.7,1.21-2.7,2.7-2.7,2.7,1.21,2.7,2.7Z"/>
          <path class="st3" d="M343.14,486.01c0,1.49-1.21,2.7-2.7,2.7s-2.7-1.21-2.7-2.7,1.21-2.7,2.7-2.7,2.7,1.21,2.7,2.7Z"/>
        </g>
        <g>
          <circle class="st3" cx="374.61" cy="32.26" r="2.7"/>
          <circle class="st3" cx="374.61" cy="71.72" r="2.7"/>
          <circle class="st3" cx="374.61" cy="111.17" r="2.7"/>
          <circle class="st3" cx="374.61" cy="150.63" r="2.7"/>
          <circle class="st3" cx="374.61" cy="190.08" r="2.7"/>
          <circle class="st3" cx="374.61" cy="229.54" r="2.7"/>
          <circle class="st3" cx="374.61" cy="268.99" r="2.7"/>
          <circle class="st3" cx="374.61" cy="308.44" r="2.7"/>
          <circle class="st3" cx="374.61" cy="347.9" r="2.7"/>
          <circle class="st3" cx="374.61" cy="387.35" r="2.7"/>
          <circle class="st3" cx="374.61" cy="426.81" r="2.7"/>
          <circle class="st3" cx="374.61" cy="466.26" r="2.7"/>
        </g>
        <g>
          <path class="st3" d="M411.47,12.56c0,1.49-1.21,2.7-2.7,2.7s-2.7-1.21-2.7-2.7,1.21-2.7,2.7-2.7,2.7,1.21,2.7,2.7Z"/>
          <circle class="st3" cx="408.77" cy="52.01" r="2.7"/>
          <circle class="st3" cx="408.77" cy="91.47" r="2.7"/>
          <circle class="st3" cx="408.77" cy="130.92" r="2.7"/>
          <circle class="st3" cx="408.77" cy="170.38" r="2.7"/>
          <path class="st3" d="M411.47,209.83c0,1.49-1.21,2.7-2.7,2.7s-2.7-1.21-2.7-2.7,1.21-2.7,2.7-2.7,2.7,1.21,2.7,2.7Z"/>
          <path class="st3" d="M411.47,249.29c0,1.49-1.21,2.7-2.7,2.7s-2.7-1.21-2.7-2.7,1.21-2.7,2.7-2.7,2.7,1.21,2.7,2.7Z"/>
          <path class="st3" d="M411.47,288.74c0,1.49-1.21,2.7-2.7,2.7s-2.7-1.21-2.7-2.7,1.21-2.7,2.7-2.7,2.7,1.21,2.7,2.7Z"/>
          <path class="st3" d="M411.47,328.2c0,1.49-1.21,2.7-2.7,2.7s-2.7-1.21-2.7-2.7,1.21-2.7,2.7-2.7,2.7,1.21,2.7,2.7Z"/>
          <path class="st3" d="M411.47,367.65c0,1.49-1.21,2.7-2.7,2.7s-2.7-1.21-2.7-2.7,1.21-2.7,2.7-2.7,2.7,1.21,2.7,2.7Z"/>
          <path class="st3" d="M411.47,407.11c0,1.49-1.21,2.7-2.7,2.7s-2.7-1.21-2.7-2.7,1.21-2.7,2.7-2.7,2.7,1.21,2.7,2.7Z"/>
          <path class="st3" d="M411.47,446.56c0,1.49-1.21,2.7-2.7,2.7s-2.7-1.21-2.7-2.7,1.21-2.7,2.7-2.7,2.7,1.21,2.7,2.7Z"/>
          <path class="st3" d="M411.47,486.01c0,1.49-1.21,2.7-2.7,2.7s-2.7-1.21-2.7-2.7,1.21-2.7,2.7-2.7,2.7,1.21,2.7,2.7Z"/>
        </g>
        <g>
          <circle class="st3" cx="442.93" cy="32.26" r="2.7"/>
          <circle class="st3" cx="442.93" cy="71.72" r="2.7"/>
          <circle class="st3" cx="442.93" cy="111.17" r="2.7"/>
          <circle class="st3" cx="442.93" cy="150.63" r="2.7"/>
          <circle class="st3" cx="442.93" cy="190.08" r="2.7"/>
          <circle class="st3" cx="442.93" cy="229.54" r="2.7"/>
          <circle class="st3" cx="442.93" cy="268.99" r="2.7"/>
          <circle class="st3" cx="442.93" cy="308.44" r="2.7"/>
          <circle class="st3" cx="442.93" cy="347.9" r="2.7"/>
          <circle class="st3" cx="442.93" cy="387.35" r="2.7"/>
          <circle class="st3" cx="442.93" cy="426.81" r="2.7"/>
          <circle class="st3" cx="442.93" cy="466.26" r="2.7"/>
        </g>
        <g>
          <path class="st3" d="M479.79,12.56c0,1.49-1.21,2.7-2.7,2.7s-2.7-1.21-2.7-2.7,1.21-2.7,2.7-2.7,2.7,1.21,2.7,2.7Z"/>
          <circle class="st3" cx="477.09" cy="52.01" r="2.7"/>
          <circle class="st3" cx="477.09" cy="91.47" r="2.7"/>
          <circle class="st3" cx="477.09" cy="130.92" r="2.7"/>
          <circle class="st3" cx="477.09" cy="170.38" r="2.7"/>
          <path class="st3" d="M479.79,209.83c0,1.49-1.21,2.7-2.7,2.7s-2.7-1.21-2.7-2.7,1.21-2.7,2.7-2.7,2.7,1.21,2.7,2.7Z"/>
          <path class="st3" d="M479.79,249.29c0,1.49-1.21,2.7-2.7,2.7s-2.7-1.21-2.7-2.7,1.21-2.7,2.7-2.7,2.7,1.21,2.7,2.7Z"/>
          <path class="st3" d="M479.79,288.74c0,1.49-1.21,2.7-2.7,2.7s-2.7-1.21-2.7-2.7,1.21-2.7,2.7-2.7,2.7,1.21,2.7,2.7Z"/>
          <path class="st3" d="M479.79,328.2c0,1.49-1.21,2.7-2.7,2.7s-2.7-1.21-2.7-2.7,1.21-2.7,2.7-2.7,2.7,1.21,2.7,2.7Z"/>
          <path class="st3" d="M479.79,367.65c0,1.49-1.21,2.7-2.7,2.7s-2.7-1.21-2.7-2.7,1.21-2.7,2.7-2.7,2.7,1.21,2.7,2.7Z"/>
          <path class="st3" d="M479.79,407.11c0,1.49-1.21,2.7-2.7,2.7s-2.7-1.21-2.7-2.7,1.21-2.7,2.7-2.7,2.7,1.21,2.7,2.7Z"/>
          <path class="st3" d="M479.79,446.56c0,1.49-1.21,2.7-2.7,2.7s-2.7-1.21-2.7-2.7,1.21-2.7,2.7-2.7,2.7,1.21,2.7,2.7Z"/>
          <path class="st3" d="M479.79,486.01c0,1.49-1.21,2.7-2.7,2.7s-2.7-1.21-2.7-2.7,1.21-2.7,2.7-2.7,2.7,1.21,2.7,2.7Z"/>
        </g>
        <g>
          <circle class="st3" cx="511.26" cy="32.26" r="2.7"/>
          <circle class="st3" cx="511.26" cy="71.72" r="2.7"/>
          <circle class="st3" cx="511.26" cy="111.17" r="2.7"/>
          <circle class="st3" cx="511.26" cy="150.63" r="2.7"/>
          <circle class="st3" cx="511.26" cy="190.08" r="2.7"/>
          <circle class="st3" cx="511.26" cy="229.54" r="2.7"/>
          <circle class="st3" cx="511.26" cy="268.99" r="2.7"/>
          <circle class="st3" cx="511.26" cy="308.44" r="2.7"/>
          <circle class="st3" cx="511.26" cy="347.9" r="2.7"/>
          <circle class="st3" cx="511.26" cy="387.35" r="2.7"/>
          <circle class="st3" cx="511.26" cy="426.81" r="2.7"/>
          <circle class="st3" cx="511.26" cy="466.26" r="2.7"/>
        </g>
        <g>
          <path class="st3" d="M548.12,12.56c0,1.49-1.21,2.7-2.7,2.7s-2.7-1.21-2.7-2.7,1.21-2.7,2.7-2.7,2.7,1.21,2.7,2.7Z"/>
          <circle class="st3" cx="545.42" cy="52.01" r="2.7"/>
          <circle class="st3" cx="545.42" cy="91.47" r="2.7"/>
          <circle class="st3" cx="545.42" cy="130.92" r="2.7"/>
          <circle class="st3" cx="545.42" cy="170.38" r="2.7"/>
          <path class="st3" d="M548.12,209.83c0,1.49-1.21,2.7-2.7,2.7s-2.7-1.21-2.7-2.7,1.21-2.7,2.7-2.7,2.7,1.21,2.7,2.7Z"/>
          <path class="st3" d="M548.12,249.29c0,1.49-1.21,2.7-2.7,2.7s-2.7-1.21-2.7-2.7,1.21-2.7,2.7-2.7,2.7,1.21,2.7,2.7Z"/>
          <path class="st3" d="M548.12,288.74c0,1.49-1.21,2.7-2.7,2.7s-2.7-1.21-2.7-2.7,1.21-2.7,2.7-2.7,2.7,1.21,2.7,2.7Z"/>
          <path class="st3" d="M548.12,328.2c0,1.49-1.21,2.7-2.7,2.7s-2.7-1.21-2.7-2.7,1.21-2.7,2.7-2.7,2.7,1.21,2.7,2.7Z"/>
          <path class="st3" d="M548.12,367.65c0,1.49-1.21,2.7-2.7,2.7s-2.7-1.21-2.7-2.7,1.21-2.7,2.7-2.7,2.7,1.21,2.7,2.7Z"/>
          <path class="st3" d="M548.12,407.11c0,1.49-1.21,2.7-2.7,2.7s-2.7-1.21-2.7-2.7,1.21-2.7,2.7-2.7,2.7,1.21,2.7,2.7Z"/>
          <path class="st3" d="M548.12,446.56c0,1.49-1.21,2.7-2.7,2.7s-2.7-1.21-2.7-2.7,1.21-2.7,2.7-2.7,2.7,1.21,2.7,2.7Z"/>
          <path class="st3" d="M548.12,486.01c0,1.49-1.21,2.7-2.7,2.7s-2.7-1.21-2.7-2.7,1.21-2.7,2.7-2.7,2.7,1.21,2.7,2.7Z"/>
        </g>
        <g>
          <path class="st3" d="M582.28,32.26c0,1.49-1.21,2.7-2.7,2.7s-2.7-1.21-2.7-2.7,1.21-2.7,2.7-2.7,2.7,1.21,2.7,2.7Z"/>
          <path class="st3" d="M582.28,71.72c0,1.49-1.21,2.7-2.7,2.7s-2.7-1.21-2.7-2.7,1.21-2.7,2.7-2.7,2.7,1.21,2.7,2.7Z"/>
          <path class="st3" d="M582.28,111.17c0,1.49-1.21,2.7-2.7,2.7s-2.7-1.21-2.7-2.7,1.21-2.7,2.7-2.7,2.7,1.21,2.7,2.7Z"/>
          <path class="st3" d="M582.28,150.63c0,1.49-1.21,2.7-2.7,2.7s-2.7-1.21-2.7-2.7,1.21-2.7,2.7-2.7,2.7,1.21,2.7,2.7Z"/>
          <path class="st3" d="M582.28,190.08c0,1.49-1.21,2.7-2.7,2.7s-2.7-1.21-2.7-2.7,1.21-2.7,2.7-2.7,2.7,1.21,2.7,2.7Z"/>
          <path class="st3" d="M582.28,229.54c0,1.49-1.21,2.7-2.7,2.7s-2.7-1.21-2.7-2.7,1.21-2.7,2.7-2.7,2.7,1.21,2.7,2.7Z"/>
          <path class="st3" d="M582.28,268.99c0,1.49-1.21,2.7-2.7,2.7s-2.7-1.21-2.7-2.7,1.21-2.7,2.7-2.7,2.7,1.21,2.7,2.7Z"/>
          <path class="st3" d="M582.28,308.44c0,1.49-1.21,2.7-2.7,2.7s-2.7-1.21-2.7-2.7,1.21-2.7,2.7-2.7,2.7,1.21,2.7,2.7Z"/>
          <path class="st3" d="M582.28,347.9c0,1.49-1.21,2.7-2.7,2.7s-2.7-1.21-2.7-2.7,1.21-2.7,2.7-2.7,2.7,1.21,2.7,2.7Z"/>
          <path class="st3" d="M582.28,387.35c0,1.49-1.21,2.7-2.7,2.7s-2.7-1.21-2.7-2.7,1.21-2.7,2.7-2.7,2.7,1.21,2.7,2.7Z"/>
          <path class="st3" d="M582.28,426.81c0,1.49-1.21,2.7-2.7,2.7s-2.7-1.21-2.7-2.7,1.21-2.7,2.7-2.7,2.7,1.21,2.7,2.7Z"/>
          <path class="st3" d="M582.28,466.26c0,1.49-1.21,2.7-2.7,2.7s-2.7-1.21-2.7-2.7,1.21-2.7,2.7-2.7,2.7,1.21,2.7,2.7Z"/>
        </g>
        <g>
          <path class="st3" d="M616.44,12.56c0,1.49-1.21,2.7-2.7,2.7s-2.7-1.21-2.7-2.7,1.21-2.7,2.7-2.7,2.7,1.21,2.7,2.7Z"/>
          <path class="st3" d="M616.44,52.01c0,1.49-1.21,2.7-2.7,2.7s-2.7-1.21-2.7-2.7,1.21-2.7,2.7-2.7,2.7,1.21,2.7,2.7Z"/>
          <path class="st3" d="M616.44,91.47c0,1.49-1.21,2.7-2.7,2.7s-2.7-1.21-2.7-2.7,1.21-2.7,2.7-2.7,2.7,1.21,2.7,2.7Z"/>
          <path class="st3" d="M616.44,130.92c0,1.49-1.21,2.7-2.7,2.7s-2.7-1.21-2.7-2.7,1.21-2.7,2.7-2.7,2.7,1.21,2.7,2.7Z"/>
          <path class="st3" d="M616.44,170.38c0,1.49-1.21,2.7-2.7,2.7s-2.7-1.21-2.7-2.7,1.21-2.7,2.7-2.7,2.7,1.21,2.7,2.7Z"/>
          <path class="st3" d="M616.44,209.83c0,1.49-1.21,2.7-2.7,2.7s-2.7-1.21-2.7-2.7,1.21-2.7,2.7-2.7,2.7,1.21,2.7,2.7Z"/>
          <path class="st3" d="M616.44,249.29c0,1.49-1.21,2.7-2.7,2.7s-2.7-1.21-2.7-2.7,1.21-2.7,2.7-2.7,2.7,1.21,2.7,2.7Z"/>
          <path class="st3" d="M616.44,288.74c0,1.49-1.21,2.7-2.7,2.7s-2.7-1.21-2.7-2.7,1.21-2.7,2.7-2.7,2.7,1.21,2.7,2.7Z"/>
          <path class="st3" d="M616.44,328.2c0,1.49-1.21,2.7-2.7,2.7s-2.7-1.21-2.7-2.7,1.21-2.7,2.7-2.7,2.7,1.21,2.7,2.7Z"/>
          <path class="st3" d="M616.44,367.65c0,1.49-1.21,2.7-2.7,2.7s-2.7-1.21-2.7-2.7,1.21-2.7,2.7-2.7,2.7,1.21,2.7,2.7Z"/>
          <path class="st3" d="M616.44,407.11c0,1.49-1.21,2.7-2.7,2.7s-2.7-1.21-2.7-2.7,1.21-2.7,2.7-2.7,2.7,1.21,2.7,2.7Z"/>
          <path class="st3" d="M616.44,446.56c0,1.49-1.21,2.7-2.7,2.7s-2.7-1.21-2.7-2.7,1.21-2.7,2.7-2.7,2.7,1.21,2.7,2.7Z"/>
          <path class="st3" d="M616.44,486.01c0,1.49-1.21,2.7-2.7,2.7s-2.7-1.21-2.7-2.7,1.21-2.7,2.7-2.7,2.7,1.21,2.7,2.7Z"/>
        </g>
        <g>
          <circle class="st3" cx="647.91" cy="32.26" r="2.7"/>
          <circle class="st3" cx="647.91" cy="71.72" r="2.7"/>
          <circle class="st3" cx="647.91" cy="111.17" r="2.7"/>
          <circle class="st3" cx="647.91" cy="150.63" r="2.7"/>
          <circle class="st3" cx="647.91" cy="190.08" r="2.7"/>
          <circle class="st3" cx="647.91" cy="229.54" r="2.7"/>
          <circle class="st3" cx="647.91" cy="268.99" r="2.7"/>
          <circle class="st3" cx="647.91" cy="308.44" r="2.7"/>
          <circle class="st3" cx="647.91" cy="347.9" r="2.7"/>
          <circle class="st3" cx="647.91" cy="387.35" r="2.7"/>
          <circle class="st3" cx="647.91" cy="426.81" r="2.7"/>
          <circle class="st3" cx="647.91" cy="466.26" r="2.7"/>
        </g>
        <g>
          <path class="st3" d="M684.77,12.56c0,1.49-1.21,2.7-2.7,2.7s-2.7-1.21-2.7-2.7,1.21-2.7,2.7-2.7,2.7,1.21,2.7,2.7Z"/>
          <circle class="st3" cx="682.07" cy="52.01" r="2.7"/>
          <circle class="st3" cx="682.07" cy="91.47" r="2.7"/>
          <circle class="st3" cx="682.07" cy="130.92" r="2.7"/>
          <circle class="st3" cx="682.07" cy="170.38" r="2.7"/>
          <path class="st3" d="M684.77,209.83c0,1.49-1.21,2.7-2.7,2.7s-2.7-1.21-2.7-2.7,1.21-2.7,2.7-2.7,2.7,1.21,2.7,2.7Z"/>
          <path class="st3" d="M684.77,249.29c0,1.49-1.21,2.7-2.7,2.7s-2.7-1.21-2.7-2.7,1.21-2.7,2.7-2.7,2.7,1.21,2.7,2.7Z"/>
          <path class="st3" d="M684.77,288.74c0,1.49-1.21,2.7-2.7,2.7s-2.7-1.21-2.7-2.7,1.21-2.7,2.7-2.7,2.7,1.21,2.7,2.7Z"/>
          <path class="st3" d="M684.77,328.2c0,1.49-1.21,2.7-2.7,2.7s-2.7-1.21-2.7-2.7,1.21-2.7,2.7-2.7,2.7,1.21,2.7,2.7Z"/>
          <path class="st3" d="M684.77,367.65c0,1.49-1.21,2.7-2.7,2.7s-2.7-1.21-2.7-2.7,1.21-2.7,2.7-2.7,2.7,1.21,2.7,2.7Z"/>
          <path class="st3" d="M684.77,407.11c0,1.49-1.21,2.7-2.7,2.7s-2.7-1.21-2.7-2.7,1.21-2.7,2.7-2.7,2.7,1.21,2.7,2.7Z"/>
          <path class="st3" d="M684.77,446.56c0,1.49-1.21,2.7-2.7,2.7s-2.7-1.21-2.7-2.7,1.21-2.7,2.7-2.7,2.7,1.21,2.7,2.7Z"/>
          <path class="st3" d="M684.77,486.01c0,1.49-1.21,2.7-2.7,2.7s-2.7-1.21-2.7-2.7,1.21-2.7,2.7-2.7,2.7,1.21,2.7,2.7Z"/>
        </g>
        <g>
          <circle class="st3" cx="716.23" cy="32.26" r="2.7"/>
          <circle class="st3" cx="716.23" cy="71.72" r="2.7"/>
          <circle class="st3" cx="716.23" cy="111.17" r="2.7"/>
          <circle class="st3" cx="716.23" cy="150.63" r="2.7"/>
          <circle class="st3" cx="716.23" cy="190.08" r="2.7"/>
          <circle class="st3" cx="716.23" cy="229.54" r="2.7"/>
          <circle class="st3" cx="716.23" cy="268.99" r="2.7"/>
          <circle class="st3" cx="716.23" cy="308.44" r="2.7"/>
          <circle class="st3" cx="716.23" cy="347.9" r="2.7"/>
          <circle class="st3" cx="716.23" cy="387.35" r="2.7"/>
          <circle class="st3" cx="716.23" cy="426.81" r="2.7"/>
          <circle class="st3" cx="716.23" cy="466.26" r="2.7"/>
        </g>
        <g>
          <path class="st3" d="M753.09,12.56c0,1.49-1.21,2.7-2.7,2.7s-2.7-1.21-2.7-2.7,1.21-2.7,2.7-2.7,2.7,1.21,2.7,2.7Z"/>
          <circle class="st3" cx="750.4" cy="52.01" r="2.7"/>
          <circle class="st3" cx="750.4" cy="91.47" r="2.7"/>
          <circle class="st3" cx="750.4" cy="130.92" r="2.7"/>
          <circle class="st3" cx="750.4" cy="170.38" r="2.7"/>
          <path class="st3" d="M753.09,209.83c0,1.49-1.21,2.7-2.7,2.7s-2.7-1.21-2.7-2.7,1.21-2.7,2.7-2.7,2.7,1.21,2.7,2.7Z"/>
          <path class="st3" d="M753.09,249.29c0,1.49-1.21,2.7-2.7,2.7s-2.7-1.21-2.7-2.7,1.21-2.7,2.7-2.7,2.7,1.21,2.7,2.7Z"/>
          <path class="st3" d="M753.09,288.74c0,1.49-1.21,2.7-2.7,2.7s-2.7-1.21-2.7-2.7,1.21-2.7,2.7-2.7,2.7,1.21,2.7,2.7Z"/>
          <path class="st3" d="M753.09,328.2c0,1.49-1.21,2.7-2.7,2.7s-2.7-1.21-2.7-2.7,1.21-2.7,2.7-2.7,2.7,1.21,2.7,2.7Z"/>
          <path class="st3" d="M753.09,367.65c0,1.49-1.21,2.7-2.7,2.7s-2.7-1.21-2.7-2.7,1.21-2.7,2.7-2.7,2.7,1.21,2.7,2.7Z"/>
          <path class="st3" d="M753.09,407.11c0,1.49-1.21,2.7-2.7,2.7s-2.7-1.21-2.7-2.7,1.21-2.7,2.7-2.7,2.7,1.21,2.7,2.7Z"/>
          <path class="st3" d="M753.09,446.56c0,1.49-1.21,2.7-2.7,2.7s-2.7-1.21-2.7-2.7,1.21-2.7,2.7-2.7,2.7,1.21,2.7,2.7Z"/>
          <path class="st3" d="M753.09,486.01c0,1.49-1.21,2.7-2.7,2.7s-2.7-1.21-2.7-2.7,1.21-2.7,2.7-2.7,2.7,1.21,2.7,2.7Z"/>
        </g>
      </g>
    </g>
  </g>
</svg>